<?xml version="1.0" encoding="utf-8" ?>
<svg baseProfile="full" height="300mm" version="1.1" viewBox="0,0,200,300" width="200mm" xmlns="http://www.w3.org/2000/svg" xmlns:ev="http://www.w3.org/2001/xml-events" xmlns:xlink="http://www.w3.org/1999/xlink"><defs /><rect fill="#222222" height="300" width="200" x="0" y="0" /><text fill="#FFFFFF" style="font-size:12px; font-family:Arial; font-weight:bold;" x="10" y="20">Over 10km Runs</text><text fill="#FFFFFF" style="font-size:4px; font-family:Arial" x="10" y="280">ATHLETE</text><text fill="#FFFFFF" style="font-size:9px; font-family:Arial" x="10" y="290">Huangguanghui</text><text fill="#FFFFFF" style="font-size:4px; font-family:Arial" x="120" y="280">STATISTICS</text><text fill="#FFFFFF" style="font-size:3px; font-family:Arial" x="120" y="285">Number: 8</text><text fill="#FFFFFF" style="font-size:3px; font-family:Arial" x="120" y="290">Weekly: 1.3</text><text fill="#FFFFFF" style="font-size:3px; font-family:Arial" x="141" y="285">Total: 102.0 km</text><text fill="#FFFFFF" style="font-size:3px; font-family:Arial" x="141" y="290">Avg: 12.8 km</text><text fill="#FFFFFF" style="font-size:3px; font-family:Arial" x="167" y="285">Min: 10.4 km</text><text fill="#FFFFFF" style="font-size:3px; font-family:Arial" x="167" y="290">Max: 16.7 km</text><polyline fill="none" points="20.576254673389485,33.51507090259838 19.631188793224283,33.0 60.04596261415281,86.46502216114459 60.368811206746614,87.0" stroke="#4dd2ff" stroke-linecap="round" stroke-linejoin="round" stroke-width="0.5"><title>2021-11-02 14.5km</title></polyline><polyline fill="none" points="165.01497699692845,33.70130405318923 153.76927100680768,35.10391173628159 147.69051101244986,41.41563934320584 146.4747590124607,71.92216194909997 154.9850230049342,85.24676636233926 165.01497699692845,86.29870665073395 170.48586099222302,81.74029644578695 171.3976749908179,45.62345140916295 161.3677210006863,34.05195602634922 147.69051101244986,42.11694170534611 146.77869701385498,76.12993725691922 161.67165900021791,86.64935334236361 171.70161299034953,78.23382300906815 171.70161299034953,47.02605430386029 161.97559699974954,33.3506520439405 153.16139500774443,34.40260796574876 146.77869701385498,42.11694170534611 146.17082101292908,73.67540227691643 154.37714700587094,84.54547266080044 166.83860499598086,84.8961195293814 171.09373699128628,79.98706016805954 171.70161299034953,41.41563934320584 162.27953499928117,33.3506520439405 147.9944490119815,40.71433683857322 147.08263501152396,75.7792895080056 158.632279003039,85.9480599234812 170.48586099222302,81.74029644578695 171.70161299034953,45.62345140916295 164.4071009978652,34.05195602634922 148.6023250129074,40.01303419331089 146.17082101292908,73.32475428190082 159.54409300163388,86.29870665073395 171.70161299034953,77.88317547179759 170.78979899175465,41.06498810858466 160.7598449997604,33.0 149.51413900963962,38.961079963250086 147.38657301291823,44.9221497499384 147.38657301291823,75.7792895080056 159.54409300163388,85.9480599234812 172.61342699080706,75.7792895080056 171.70161299034953,42.46759283496067 160.45590700022876,33.3506520439405 147.69051101244986,40.01303419331089 147.08263501152396,77.88317547179759 158.32834100350738,85.9480599234812 169.87798499129713,81.38964926078916 172.0055509917438,48.77930713025853 168.96617099270225,36.857170549687 163.19134899787605,33.3506520439405 147.38657301291823,41.76629054103978 147.69051101244986,77.5325278986711 160.15196900069714,86.29870665073395 170.78979899175465,79.98706016805954 172.0055509917438,43.168894985923544 161.3677210006863,33.70130405318923 147.69051101244986,42.11694170534611 147.08263501152396,75.07799390493892 151.94564300961792,83.14288483583368 164.10316299833357,86.29870665073395 172.61342699080706,75.7792895080056 169.87798499129713,40.71433683857322 160.15196900069714,33.3506520439405 153.46533300727606,34.75325986859389 146.77869701385498,45.97410218603909 147.69051101244986,76.12993725691922 158.93621700257063,86.29870665073395 172.0055509917438,77.88317547179759 171.70161299034953,42.81824392825365 163.49528699740767,33.70130405318923 149.210201010108,39.66238281852566 147.08263501152396,72.62345818593167 157.11258900351822,85.59741316083819 170.78979899175465,80.33770749391988 172.0055509917438,41.06498810858466 162.27953499928117,33.3506520439405 147.38657301291823,42.81824392825365 147.38657301291823,75.42864172440022 160.7598449997604,87.0 172.61342699080706,75.7792895080056 172.30948899127543,44.9221497499384 160.7598449997604,33.3506520439405 148.2983870115131,42.11694170534611 147.9944490119815,76.83123264811002 163.19134899787605,86.64935334236361 172.61342699080706,77.88317547179759 170.78979899175465,40.71433683857322 161.06378299929202,33.0 152.55351900681853,35.45456356997602 147.69051101244986,43.168894985923544 147.08263501152396,74.7273460503202 153.16139500774443,84.1948257565964 161.06378299929202,86.29870665073395 172.91736498847604,75.7792895080056 171.3976749908179,41.76629054103978 159.8480310011655,33.0 146.77869701385498,44.57149886735715 147.69051101244986,74.7273460503202 160.45590700022876,86.64935334236361 171.3976749908179,79.63641280634329 172.30948899127543,45.2728005964309 161.97559699974954,33.70130405318923 146.77869701385498,44.22084794891998 147.38657301291823,77.1818802903872 160.15196900069714,86.29870665073395 172.30948899127543,76.48058497020975 172.30948899127543,43.519546010298654 169.27010899409652,37.20782220619731 157.11258900351822,34.05195602634922 147.69051101244986,43.168894985923544 147.08263501152396,73.67540227691643 158.32834100350738,86.29870665073395 165.01497699692845,85.24676636233926 172.61342699080706,75.42864172440022 172.0055509917438,42.46759283496067 159.54409300163388,33.3506520439405 147.69051101244986,42.81824392825365 147.08263501152396,76.48058497020975 150.12201501056552,82.09094359609298 162.27953499928117,85.9480599234812 172.91736498847604,73.32475428190082 172.91736498847604,43.87019699672237 157.41652700304985,34.40260796574876 147.9944490119815,43.168894985923544 149.210201010108,80.33770749391988 159.8480310011655,86.64935334236361 172.91736498847604,75.07799390493892 171.70161299034953,43.519546010298654 159.8480310011655,34.40260796574876 147.69051101244986,46.324752926360816 147.69051101244986,77.1818802903872 151.0338290091604,82.7922377907671 162.88741099834442,86.29870665073395 173.52524098940194,76.83123264811002 172.0055509917438,41.41563934320584 156.8086510039866,34.05195602634922 148.2983870115131,42.81824392825365 148.90626301057637,78.93511797813699 157.41652700304985,86.64935334236361 172.61342699080706,77.5325278986711 172.91736498847604,44.9221497499384 170.78979899175465,38.961079963250086 159.54409300163388,34.05195602634922 150.42595301009715,37.909125414444134 147.08263501152396,45.62345140916295 147.9944490119815,77.88317547179759 160.45590700022876,87.0 172.30948899127543,79.63641280634329 172.30948899127543,43.168894985923544 163.49528699740767,34.05195602634922 147.08263501152396,42.11694170534611 147.69051101244986,75.42864172440022 149.81807700917125,81.74029644578695 161.06378299929202,87.0 173.22130298800766,78.23382300906815 171.70161299034953,43.168894985923544 162.27953499928117,34.75325986859389 150.42595301009715,38.961079963250086 147.69051101244986,44.9221497499384 147.69051101244986,76.83123264811002 155.89683700539172,86.64935334236361 169.57404699362814,84.1948257565964 173.52524098940194,76.48058497020975 172.0055509917438,41.76629054103978 156.50471300445497,34.75325986859389 147.69051101244986,43.87019699672237 147.69051101244986,77.1818802903872 156.20077500492334,86.29870665073395 167.14254299364984,85.24676636233926 173.82917898707092,75.07799390493892 169.27010899409652,37.909125414444134 152.2495810072869,36.15586713049561 146.77869701385498,50.88320936099626" stroke="#4dd2ff" stroke-linecap="round" stroke-linejoin="round" stroke-width="0.5"><title>2021-06-20 10.5km</title></polyline><polyline fill="none" points="67.0,129.22638866037596 66.09749303595163,123.84703932871344 60.88300835643895,120.08724922320107 56.11977715883404,119.97156298474874 54.66573816165328,120.26077853736933 52.86072423378937,122.16959754365962 48.59888579393737,122.11175463639665 46.39275766024366,122.86371197813423 43.48467966564931,118.40979649143992 38.47075208905153,114.302908841928 26.53760445676744,126.276429117308 31.10027855145745,130.67244174343068 33.40668523684144,128.64796641090652 39.87465181061998,126.85485374741256 41.57938718656078,130.55675763031468 42.130919219926,130.49891556514194 44.33704735385254,141.08391680760542 39.07242339849472,140.27414216083707 34.76044568256475,140.8525527389138 33.25626740953885,143.62891543121077 27.54038997227326,143.4553931549308 24.43175487453118,141.2574397980934 22.27576601668261,141.2574397980934 13.25069637876004,132.34985877317376 13.10027855122462,128.64796641090652 14.80501392739825,127.72248960420256 16.10863509727642,125.58231879433151 17.81337047321722,124.71467971469974 19.96935933129862,126.33427160629071 21.02228412264958,126.21858662221348 22.57660167128779,124.71467971469974 22.52646239544265,122.5744977319846 13.15041782730259,113.43525277555455 13.0,112.45190765423467 15.95821727020666,109.1547970570391 19.61838440108113,108.17144462943543 22.77715877420269,108.98126439773478 30.74930362123996,109.09695284313057 28.54317548754625,106.89886840776308 29.59610027843155,106.2047347384505 41.83008356532082,105.56844480673317 42.08077994431369,101.34577563416678 41.32869080780074,98.45351861446397 39.87465181061998,96.89169378590304 37.96935933153145,96.94953922537388 37.31754874647595,97.75937476893887 37.31754874647595,104.29586283513345 39.52367688016966,105.74197849415941 41.12813370488584,104.52724158437923 41.17827298049815,98.33782803145004 39.82451253477484,96.77600288938265 37.31754874647595,97.52799330133712 37.06685236771591,104.06448399275541 38.57103064050898,105.56844480673317 40.67688022297807,105.22137727506924 41.2785515319556,104.41155222139787 41.17827298049815,97.81722012138925 39.42339832847938,96.54462102672551 36.91643454041332,98.16429211373907 36.76601671311073,103.60172602935927 37.16713091917336,104.81646489055129 38.77158774365671,105.68413393740775 41.2785515319556,104.18017342552776 41.02785515319556,97.87506546807708 39.17270194995217,96.60246650112094 37.91922005568631,96.94953922537388 36.91643454041332,98.6270544452127 37.01671309187077,104.0066392677254 38.57103064050898,105.51060023275204 40.62674094713293,104.93215417215833 41.22841225611046,104.0066392677254 41.12813370488584,98.04860147298314 39.67409470723942,96.48677554656751 36.91643454041332,97.99075614364119 37.06685236771591,104.06448399275541 38.22005571052432,105.2792218781542 39.82451253477484,105.45275565277552 41.2785515319556,103.60172602935927 41.0779944290407,98.27998273138655 39.22284122556448,96.54462102672551 37.01671309187077,97.9329108085949 36.91643454041332,104.12232871196466 39.47353760455735,105.56844480673317 41.2785515319556,103.31250211334554 41.17827298049815,98.27998273138655 39.87465181061998,96.6603119696374 38.77158774365671,96.60246650112094 37.76880222838372,96.89169378590304 36.76601671311073,98.85843547136756 36.96657381602563,103.83310505741974 39.02228412264958,105.56844480673317 40.07520891353488,105.45275565277552 41.37883008341305,103.65957079507643 40.92757660150528,97.58583867689595 38.87186629511416,96.48677554656751 37.06685236771591,97.70152941072593 37.16713091917336,104.23801813327009 39.82451253477484,105.45275565277552 41.17827298049815,103.83310505741974 41.12813370488584,97.87506546807708 39.5738161560148,96.42893006041413 38.47075208905153,96.42893006041413 36.86629526456818,98.22213742567692 36.96657381602563,103.77526030904846 39.52367688016966,105.56844480673317 41.17827298049815,103.83310505741974 41.02785515319556,97.58583867689595 39.22284122556448,96.42893006041413 37.16713091917336,97.70152941072593 37.01671309187077,104.12232871196466 39.27298050117679,105.62628937495174 41.0779944290407,104.41155222139787 41.12813370488584,98.04860147298314 39.27298050117679,96.42893006041413 36.91643454041332,98.04860147298314 36.76601671311073,103.48603648040444 37.91922005568631,105.10568805137882 40.82729805028066,104.75862024101662 41.22841225611046,98.27998273138655 39.82451253477484,96.48677554656751 37.26740947063081,97.23876633605687 36.76601671311073,103.02327805227833 37.46796657377854,104.75862024101662 38.87186629511416,105.51060023275204 41.17827298049815,104.12232871196466 41.0779944290407,97.87506546807708 39.47353760455735,96.54462102672551 37.96935933153145,96.77600288938265 36.91643454041332,98.16429211373907 36.91643454041332,103.83310505741974 39.52367688016966,105.45275565277552 41.17827298049815,104.12232871196466 41.0779944290407,97.70152941072593 39.42339832847938,96.42893006041413 38.11977715883404,96.54462102672551 36.91643454041332,97.87506546807708 36.66573816142045,103.31250211334554 38.87186629511416,105.45275565277552 39.9749303618446,105.39491106697824 41.22841225611046,103.77526030904846 41.0779944290407,97.58583867689595 38.82172701950185,96.37108456873102 37.01671309187077,98.16429211373907 37.31754874647595,104.52724158437923 39.17270194995217,105.51060023275204 40.72701949859038,104.75862024101662 41.88022284116596,100.76732539205113 42.3816155991517,104.23801813327009" stroke="#4dd2ff" stroke-linecap="round" stroke-linejoin="round" stroke-width="0.5"><title>2021-06-06 10.4km</title></polyline><polyline fill="none" points="180.81306532630697,125.88561153126648 186.72864321572706,117.3707299241214 185.96884422097355,115.36721147340722 184.12361809029244,114.67850051936693 178.58793969848193,115.24199135653907 176.36281407019123,116.93246081308462 169.19899497460574,117.9968281200272 168.49346733652055,115.55504160159035 161.16683417069726,108.48006770486245 149.0643216080498,119.93772853247356 147.9788944721222,121.94123229937395 152.6462311556097,126.2612653952092 154.76281407033093,124.32038466294762 161.70954773854464,122.25427918171044 162.68643216090277,122.75515386631014 163.82613065303303,126.2612653952092 165.0743718589656,127.01257244398585 167.2994974872563,137.46816826501163 162.14371859282255,136.9673053966835 156.60804020077921,137.59338391921483 154.97989949723706,140.47333702864125 149.55276381922886,140.4107294936548 145.97085427120328,138.15685405227123 142.66030150745064,137.46816826501163 133.65125628141686,128.45257509115618 133.27135678380728,124.57082122605061 136.52763819065876,120.75165271403966 138.6984924620483,119.87511893594638 140.76080401986837,121.94123229937395 141.9005025124643,121.87862290418707 143.63718592957594,119.68729010899551 143.69145728601143,117.80899872712325 133.21708542690612,107.10262982355198 137.45025125634857,101.96851636958309 139.02412060275674,102.84507531760028 141.57487437175587,102.28157327807276 151.72361809015274,103.28335432952736 152.42914572847076,102.9076866239775 150.0954773868434,100.40322946914239 154.22010050248355,99.52666708873585 160.29849246214144,104.28513377136551 161.3839195978362,107.72873832855839 147.76180904498324,121.7534040948376 150.3668341706507,124.50821209466085 157.42211055243388,124.13255717477296 162.57788944710046,122.37949789041886 163.93467336636968,126.13604746561032 164.85728643205948,126.07343849149765 167.35376884415746,136.46644212602405 166.75678391940892,137.6559917368577 163.28341708541848,136.90469750977354 156.77085427124985,137.3429525855463 155.68542713555507,140.28551440499723 154.81708542699926,140.53594455716666 149.17286432138644,140.28551440499723 145.48241206025705,137.78120735357516 142.82311557768844,137.4055604285095 133.21708542690612,128.20214008685434 133.1628140702378,123.94472963007865 137.1246231154073,119.81250933313277 138.31859296467155,119.68729010899551 141.1949748743791,122.00384168844903 142.28040200984105,121.81601350253914 143.7457286431454,119.68729010899551 143.14874371839687,117.49594961362891 133.3256281404756,107.47829500201624 137.50452261278406,102.21896190900588 140.21809045225382,101.34240208094707 144.2884422109928,103.15813178604003 152.48341708513908,103.15813178604003 150.14974874351174,100.9667332059471 155.08844221103936,99.46405544283334 159.75577889452688,103.40857684769435 160.89547738665715,104.91124510526424 161.22110552736558,108.04179234546609 148.08743718569167,121.44035696116043 152.53768844204023,126.32387435046257 155.7396984922234,123.94472963007865 162.25226130639203,122.06645107129589 163.66331658279523,125.25952125538606 164.80301507515833,125.88561153126648 167.46231155772693,136.77948171726894 162.25226130639203,136.40383418876445 160.1356783916708,137.2803447365295 156.7165829143487,137.21773688105168 155.35979899484664,140.28551440499723 149.0643216080498,139.97247657354455 146.4050251254812,137.71859954838874 143.3115577888675,137.46816826501163 133.05427135666832,127.63866095984122 133.0,124.06994799961103 135.06231155758724,122.56732590671163 135.27939698495902,121.44035696116043 139.40402010036632,119.37424193811603 140.92361809010617,121.44035696116043 142.0633165827021,121.37774751556572 143.69145728601143,119.62468048743904 143.42010050220415,117.68377910059644 133.1628140702378,107.10262982355198 137.23316582897678,102.21896190900588 141.2492462308146,101.65545930375811 145.10251256264746,102.84507531760028 151.01809045206755,102.46940734784584 155.7396984922234,105.41213371983031 161.4924623114057,105.09907838294748 162.84924623090774,108.41745695815189 170.55577889434062,116.306361548719 175.874371859245,116.61941125954036 179.99899497488514,114.61589039495448 185.26331658288836,114.55328026413918 187.0,115.99331168067874 186.8914572861977,117.12029046972748 180.92160804010928,126.13604746561032 183.30954773840494,129.39170546084642 185.42613065312617,130.01779158855788" stroke="#4dd2ff" stroke-linecap="round" stroke-linejoin="round" stroke-width="0.5"><title>2021-05-30 10.6km</title></polyline><polyline fill="none" points="53.8836622267263,193.10100281338964 54.54165569721954,193.06726598476234 54.64401023706887,192.0214209366677 55.11191670491826,191.97081536601763 55.068050473521,191.17799276908045 54.23459207761334,190.19961079051427 53.18180252489401,189.65981139805808 51.76346104411641,189.71041766479902 51.13471172784921,190.14900467115513 49.42392870475305,190.19961079051427 49.18997547071194,184.75093107558496 46.879687285632826,187.38251361959556 45.56370034458814,187.29816866463807 43.13643554248847,184.97023119531514 42.90248230850557,184.00868239240663 41.57187329046428,182.3554803571751 42.99021477124188,182.01809018784843 42.361465455032885,178.69476081051107 41.761960293049924,169.39921122456144 41.191699285293,167.50967180682346 40.080421424121596,165.2658161366271 36.74658784043277,160.8117581680126 35.591443747864105,159.71509698366572 33.44199841096997,158.55094112051302 24.02538074477343,155.53084697893064 24.244711901643313,154.80534141189128 25.692297536646947,153.21934158130898 24.990437834814657,153.0 23.528230122639798,154.92344718292588 23.29427688877331,155.64895223965868 24.098491130396724,156.07075606414583 34.27545680687763,159.2595586940297 35.76690867327852,160.35622285331192 37.06827353709377,161.84092599617725 39.276207182439975,165.24894492782187 40.27050842664903,166.3961832665227 41.17707720823819,168.43757328444917 41.659605753200594,171.5755293902912 42.142134298163,181.19148140931793 42.858616077166516,181.30956862670428 42.94634853990283,182.1024377937283 43.83829524437897,182.11930730981112 49.2338417021092,180.93843709249632 49.17535339365713,189.96344876971852 51.544129887304734,192.6455550550454 49.43855078186607,196.27223446278367 53.050203830818646,198.61688321034308 55.170405013428535,200.40486674421118 55.682177712616976,200.1687190659286 54.527033620048314,202.361506170113 52.11439089500345,205.2289538281475 49.730992324242834,206.73012750290218 48.4442495375406,207.0 47.771633989934344,206.84819677373162 46.68960028298898,206.1060456935229 45.490589959023055,204.6554682104761 43.472743316262495,199.56148065521847 42.33222130080685,197.84095990845526 36.249437218299136,191.98768389126053 34.67025288916193,191.12738694441214 36.38103591243271,192.12263203230395 42.361465455032885,197.8578278444329 43.56047577899881,199.7301582116197 45.31512503355043,204.36872466778732 46.68960028298898,206.1060456935229 48.2834066892392,206.96626596158603 49.8625910183182,206.6795263614331 52.3775882832706,204.99281292842352 54.60014400567161,202.26030124124372 55.65293355839094,200.10124823980732 55.25813747610664,200.37113138195127 51.6757285813801,197.57107270276174 49.643259861448314,196.4577833974472 49.57014947588323,195.96860849141376 51.41253119322937,193.21908166031062 51.50026365596568,192.51060733402846 49.39468455046881,190.3176916764205 51.70497273566434,189.98031749647635 51.836571429739706,189.67668015536037 53.12331421644194,189.74415516744193 53.78130768687697,190.14900467115513 50.63756110571558,194.58541656812304 50.739915645623114,195.27701395306212 51.77808312122943,195.31075033805973 51.95354804670205,197.09876904981502 52.62616359430831,197.43612893740647 54.89258554810658,195.9517403658392 56.70572311116848,193.03352914929565 56.67647895694245,192.35879101828323 55.22889332193881,192.0214209366677 54.99494008795591,191.07678110449342 54.102993383596186,190.0815298216039 54.49778946582228,189.52486127894372 55.477468632976525,188.9681908920029 54.263836231897585,189.67668015536037 52.01203635521233,192.81423955391801 52.96247136814054,193.86007966728357 53.43037783593172,193.8432113299932" stroke="#4dd2ff" stroke-linecap="round" stroke-linejoin="round" stroke-width="0.5"><title>2021-04-05 16.7km</title></polyline><polyline fill="none" points="181.54812583327293,207.0 180.94220313848928,203.15545058745192 170.79299800097942,201.49529900035122 177.9883300019428,191.7090779232676 176.39778292784467,189.17512774502393 169.95985429547727,188.03921664942754 163.82488701073453,191.44694548816187 155.94789197854698,191.7090779232676 153.44846086204052,193.28187087492552 142.61759269284084,180.08779746777145 142.31463134568185,175.01982205937384 146.70757088251412,169.60229846840957 146.70757088251412,161.21380830428097 144.6625817879103,154.6602441004361 143.29925572453067,153.61166924773715 140.19390191417187,153.87381307932083 138.67909517651424,156.67000903660664 138.60335484007373,163.3109384260024 139.96668090345338,166.28186411387287 142.9205540404655,167.06828392174793 144.9655431350693,165.8449639136088 145.7986868401058,156.23310401052004 142.61759269284084,153.26214401598554 139.58797921892256,154.2233380653197 138.5276145027019,161.73809130862355 139.58797921892256,165.93234397115884 142.76907336665317,166.89352402609074 145.34424481960014,164.97116285492666 145.7229465036653,163.3109384260024 145.4957254929468,155.1845310528879 143.22351538715884,153.17476268589962 140.11816157680005,153.87381307932083 138.60335484007373,156.75739001540933 139.8152002291754,166.28186411387287 143.07203471381217,167.1556638564216 144.51110111409798,166.28186411387287 145.57146582985297,156.40786604740424 144.2838801033795,153.7864318107022 142.16315067140386,153.17476268589962 138.9820565241389,155.35929330048384 138.90631618723273,163.7478398985695 140.57260359823704,166.54400412878022 142.23889100877568,166.9809039782849 145.57146582985297,163.7478398985695 145.4957254929468,155.97096088941908 144.9655431350693,154.48548171267612 142.0116699980572,153.17476268589962 139.28501787176356,155.1845310528879 139.05779686104506,165.05854300025385 141.2542666294612,166.9809039782849 145.19276414532214,165.40806349372724 145.64720616675913,155.62143660563743 142.23889100877568,153.26214401598554 138.67909517651424,156.23310401052004 139.13353719748557,164.79640253767138 141.5572279766202,166.9809039782849 143.22351538715884,166.89352402609074 145.34424481960014,164.62164218572434 145.11702380888164,155.09714991610963 142.390371682588,153.34952533693286 139.36075820820406,154.5728629110381 138.60335484007373,156.145722978923 138.7548355134204,164.2721213758923 139.36075820820406,165.75758384732762 142.390371682588,166.9809039782849 144.05665909312665,166.71876409481047 145.64720616675913,163.83522016683128 145.19276414532214,154.83500645309687 143.9809187562205,153.52428795275046 140.79982460848987,153.52428795275046 138.5276145027019,156.67000903660664 138.9820565241389,164.8837827006937 143.22351538715884,166.9809039782849 145.34424481960014,164.70902236609254 145.19276414532214,154.74762528127758 140.7240842715837,153.52428795275046 138.7548355134204,156.0583419384202 138.90631618723273,164.53426199645037 142.61759269284084,167.67994328099303 145.26850448269397,164.2721213758923 144.9655431350693,154.5728629110381 142.23889100877568,153.26214401598554 138.60335484007373,155.97096088941908 139.5122388820164,165.8449639136088 142.31463134568185,167.50518350786297 143.82943808240816,166.89352402609074 145.4199851565063,164.09736091870582 145.04128347197548,154.48548171267612 140.42112292395905,153.52428795275046 138.5276145027019,158.0681036459282 139.43649854511023,165.49544359528227 143.90517841931432,166.6313841160154 145.7229465036653,164.00998067692854 144.6625817879103,154.2233380653197 143.29925572453067,153.34952533693286 139.66371955582872,154.2233380653197 138.5276145027019,157.8933419425157 139.66371955582872,165.75758384732762 142.693333029747,167.06828392174793 144.13239942956716,166.45662413263926 145.7986868401058,163.66045962146018 144.81406246125698,154.1359568319167 142.84481370309368,153.0 140.04242123989388,153.69905053358525 138.67909517651424,157.19429477816448 139.36075820820406,165.40806349372724 143.67795740859583,166.71876409481047 145.4199851565063,164.44688179850345 145.4957254929468,155.79619876499055 141.86018932424486,153.17476268589962 138.67909517651424,156.58262804878177 139.36075820820406,165.14592313673347 142.08741033496335,166.89352402609074 143.90517841931432,166.54400412878022 145.7986868401058,162.26237399707315 144.43536077719182,153.61166924773715 141.33000696636736,153.17476268589962 138.67909517651424,157.01953289983794 139.20927753439173,165.05854300025385 142.76907336665317,166.9809039782849 145.57146582985297,164.2721213758923 144.6625817879103,154.04857558989897 142.31463134568185,153.17476268589962 140.26964225061238,153.87381307932083 138.7548355134204,157.3690566221485 139.28501787176356,165.40806349372724 143.753697745502,166.71876409481047 145.7986868401058,163.13617777556647 145.34424481960014,155.1845310528879 142.08741033496335,153.0873813474318 138.67909517651424,156.23310401052004 139.20927753439173,165.40806349372724 142.76907336665317,167.1556638564216 145.7986868401058,163.3109384260024 145.4957254929468,155.79619876499055 143.37499606143683,153.34952533693286 141.33000696636736,153.34952533693286 138.60335484007373,157.10691384330858 139.05779686104506,164.70902236609254 139.96668090345338,166.10710406006547 143.14777505071834,166.89352402609074 145.87442717747763,163.04879743698984 145.34424481960014,155.27191218105145 144.51110111409798,153.87381307932083 141.33000696636736,153.26214401598554 138.5276145027019,157.10691384330858 138.9820565241389,164.8837827006937 140.42112292395905,166.71876409481047 143.60221707215533,166.8061440648744 145.57146582985297,164.18474115175195 145.34424481960014,155.5340555124567 142.16315067140386,153.17476268589962 138.7548355134204,156.0583419384202 139.05779686104506,165.05854300025385 143.22351538715884,167.06828392174793 145.64720616675913,164.09736091870582 145.57146582985297,155.1845310528879 143.14777505071834,153.0 141.40574730327353,153.0873813474318 138.60335484007373,156.75739001540933 139.13353719748557,164.8837827006937 142.84481370309368,166.8061440648744 145.4199851565063,164.79640253767138 145.4957254929468,155.62143660563743 142.9205540404655,153.34952533693286 138.90631618723273,155.446674410603 139.05779686104506,164.97116285492666 142.693333029747,166.89352402609074 145.57146582985297,164.44688179850345 145.26850448269397,155.1845310528879 142.9205540404655,153.0873813474318 141.2542666294612,153.17476268589962 138.4518741662614,156.93215194693767 139.20927753439173,165.23330326459836 140.34538258751854,166.54400412878022 143.5264767347835,166.9809039782849 145.57146582985297,164.44688179850345 144.8898027986288,154.5728629110381 143.753697745502,153.43690664932365 140.4968632608652,153.61166924773715 138.67909517651424,156.23310401052004 138.7548355134204,164.53426199645037 140.87556494539604,166.8061440648744 142.61759269284084,166.9809039782849 145.57146582985297,164.18474115175195 145.4957254929468,155.79619876499055 141.7844489873387,153.0873813474318 138.67909517651424,155.88357983191963 138.7548355134204,164.18474115175195 140.64834393467754,166.71876409481047 142.390371682588,167.06828392174793" stroke="#4dd2ff" stroke-linecap="round" stroke-linejoin="round" stroke-width="0.5"><title>2021-03-28 12.2km</title></polyline><polyline fill="none" points="40.866539561451646,256.0975207342344 40.574833174439846,255.87985126129934 40.54051477595931,255.47419323532085 40.120114394667326,255.4642991162982 37.75214489991777,254.6529779811026 37.47759771210258,256.21624933530256 37.07435653000721,257.26501244215615 36.928503336472204,258.333552071359 36.50810295518022,259.1646304524038 35.36701620588428,262.8747164551969 35.14394661580445,264.5071101244248 35.727359389857156,264.78411970461457 35.75309818875394,265.1105942834547 35.67588179218001,265.22931204444467 35.264061010442674,265.16006003457005 34.989513822685694,265.3974952948338 34.80934223069926,266.37690970768745 32.3984747377981,265.7338609360813 27.001906577672344,265.0413421902558 18.147759771178244,262.05356276896055 14.690181124809897,261.5292080464642 13.171591992373578,260.7575111248807 13.025738798838574,260.7970854727391 13.0,260.55963914759195 14.286939942772733,257.29469425471325 15.882745471870294,253.6536586357106 15.076263107708655,253.60418711812963 14.604385128681315,253.8812272971627 14.44995233550435,254.25720915346028 15.71973307908047,248.64701531318133 17.916110581485555,249.5771224141863 17.735938989499118,249.44849110344512 17.804575786431087,248.8943850788055 18.851286939898273,246.57897980989947 20.78169685410103,241.6016640337475 20.86749285031692,240.97824495925306 17.81315538607305,233.7740053877933 27.182078169687884,231.56710694211506 27.937082936114166,234.842799442682 27.87702573876595,235.10999614682805 28.31458531934186,235.29802302328608 29.7473784556787,235.28812688084145 30.12488083887729,235.43656891339924 30.52812202097266,236.35690452928247 30.948522402293747,237.97984103694762 31.42040038126288,238.45484179291088 37.23736892276793,236.8912890108695 38.47283126786351,236.86160106007446 38.65300285984995,237.05952056333626 38.58436606291798,237.26733561435685 38.73879885603674,236.6438891478101 39.656816015194636,236.7527451640126 41.02955195424147,236.61420112251653 44.22974261199124,236.6933691700615 45.19065776927164,236.36680056450132 46.391801715886686,236.3371124558471 47.52430886559887,236.3865926320068 48.03050524307764,236.5449290288234 47.42993326979922,232.45778938801232 47.447092468995834,228.9840823598788 47.26692087698029,224.73827426298521 46.22020972351311,216.8696849860571 45.65395614868612,214.16749625458033 46.06577693039435,213.8606496274151 48.25357483315747,213.62309029231983 59.65586272641667,213.93983594523888 60.25643469969509,214.53373130111868 61.0285986654053,214.75149203505134 62.83031458532787,216.63213290237763 63.1992373689136,217.48335855273763 64.36606291704811,218.55232919123227 65.68732125833048,218.5721248344853 65.83317445183638,218.304883315177 66.09914204000961,218.2850876182565 66.6224976167723,218.3147811621675 67.0,218.61171610906604 66.00476644420996,220.13596809121373 66.29647283127997,220.57146432916488 66.72545281218481,220.72982612052874" stroke="#4dd2ff" stroke-linecap="round" stroke-linejoin="round" stroke-width="0.5"><title>2021-03-28 16.3km</title></polyline><polyline fill="none" points="165.87310849130154,223.11246969457716 153.60094149410725,214.82024829089642 138.17307441309094,236.6630995052401 142.9066245406866,240.91029307374265 137.8224410712719,244.95523100567516 155.7047415515408,244.34849083377048 155.17879153694957,257.494486985961 158.68512496445328,264.7753094843356 174.6389420600608,259.92143074190244 182.00224225781858,254.66304890834726 181.6516089150682,238.281079063192 155.17879153694957,213.6067496134201 139.0496577695012,235.24736632604618 139.4002911131829,239.09006835485343 143.25725788343698,240.70804596424568 138.17307441309094,242.52826922060922 137.8224410712719,245.35972435225267 154.65284152235836,244.752984302002 157.10727492161095,265.1797988511389 181.47629224415869,254.4608031794196 179.72312553040683,237.8765842958819 155.52942487969995,213.0 139.92624112591147,232.8203928465955 138.69902442768216,238.0788316896651 142.3806745270267,241.71928130986635 138.52370775584131,242.32602227351163 137.9977577412501,245.35972435225267 155.35410820879042,242.12377530615777 156.2306915652007,264.3708200355759 158.50980829354376,265.38204350462183 182.52819227147847,253.04508250637446 179.89844220131636,237.2698419915978 154.12689150869846,214.01124925387558 138.52370775584131,235.0451186473947 139.0496577695012,238.68557374959346 142.55599119700491,240.1013045128202 137.9977577412501,243.13500994129572 139.0496577695012,245.76421761757229 154.3022081805393,244.752984302002 156.93195825070143,263.9663305057911 174.28830871731043,259.71918554080185 182.70350894331932,252.43834477080964 181.6516089150682,239.49456287897192 155.00347486604005,214.01124925387558 139.92624112591147,234.43837549106684 139.22497444134206,238.281079063192 142.55599119700491,240.50579883379396 138.17307441309094,242.52826922060922 138.17307441309094,245.15747768897563 153.42562482319772,242.32602227351163 158.68512496445328,265.1797988511389 169.2041252469644,262.3483715750044 182.52819227147847,253.8540658701677 182.00224225781858,240.1013045128202 166.74969184864312,222.91022079845425 154.4775248505175,213.8089994440088 139.4002911131829,235.65186162118334 142.9066245406866,240.91029307374265 137.9977577412501,242.73051614814904 137.9977577412501,245.35972435225267 154.65284152235836,244.34849083377048 156.58132490795106,263.7640857102815 159.91234166454524,265.1797988511389 182.00224225781858,253.65182005916722 181.125658900477,238.281079063192 155.17879153694957,213.6067496134201 139.0496577695012,236.258604412782 143.08194121252745,240.70804596424568 138.17307441309094,244.95523100567516 154.65284152235836,245.56197099469136 157.10727492161095,263.1573512031464 159.91234166454524,265.38204350462183 181.47629224415869,254.4608031794196 181.47629224415869,239.49456287897192 154.65284152235836,213.6067496134201 140.62750781234354,235.44961398362648 143.08194121252745,241.11254016309977 137.64712439943105,244.34849083377048 154.65284152235836,246.168710801634 155.7047415515408,261.7416366406251 156.93195825070143,265.38204350462183 160.2629750072956,265.9887773428345 174.11299204546958,259.92143074190244 182.35287560056895,252.43834477080964 181.6516089150682,239.69681011047214 155.52942487969995,213.6067496134201 140.9781411550939,232.21364902029745 139.22497444134206,235.44961398362648 142.9066245406866,241.11254016309977 137.8224410712719,244.95523100567516 154.12689150869846,245.76421761757229 156.2306915652007,263.9663305057911 159.2110749790445,265.9887773428345 182.17755892965943,253.65182005916722 182.00224225781858,240.1013045128202 156.05537489335984,214.01124925387558 141.3287744987756,233.22488862962928 139.92624112591147,236.4608519693138 142.73130786884576,241.51703428151086 137.8224410712719,244.95523100567516 153.95157483778894,246.5732039040886 156.05537489335984,261.7416366406251 161.31487503554672,266.59551099769305 181.125658900477,255.26978597440757 181.30097557231784,239.09006835485343 154.8281581941992,214.01124925387558 139.92624112591147,234.23612773127388 143.08194121252745,241.11254016309977 137.64712439943105,244.95523100567516 154.12689150869846,246.977696926333 157.10727492161095,264.3708200355759 161.31487503554672,266.59551099769305 181.82692558690906,254.05631165986415 181.6516089150682,239.2923156276811 155.00347486604005,214.21349904336967 141.5040911687538,232.0114010379184 140.10155779775232,235.65186162118334 142.9066245406866,240.91029307374265 137.29649105668068,244.55073757783975 153.2503081522882,246.37095736304764 157.98385827895254,265.1797988511389 165.1718418058008,265.7865327502368 182.00224225781858,252.43834477080964 180.95034222956747,238.281079063192 168.50285856146365,224.93270884884987 154.8281581941992,214.01124925387558 138.874341099523,235.8541092388332 142.9066245406866,241.31478723243345 137.64712439943105,243.3372568077175 139.75092445593327,245.76421761757229 154.12689150869846,246.37095736304764 156.93195825070143,264.9775541779818 162.01614172104746,267.0" stroke="#4dd2ff" stroke-linecap="round" stroke-linejoin="round" stroke-width="0.5"><title>2021-03-22 10.9km</title></polyline></svg>