<?xml version="1.0" encoding="utf-8" ?>
<svg baseProfile="full" height="200mm" version="1.1" viewBox="0,0,200,200" width="200mm" xmlns="http://www.w3.org/2000/svg" xmlns:ev="http://www.w3.org/2001/xml-events" xmlns:xlink="http://www.w3.org/1999/xlink"><defs /><rect fill="#1a1a1a" height="200" width="200" x="0" y="0" /><text alignment-baseline="middle" fill="#e1ed5e" style="dominant-baseline: central; font-size:9.0px; font-family:Arial;" text-anchor="middle" x="100.0" y="100.0">2022</text><line stroke="#e1ed5e" stroke-width="0.3" x1="100.0" x2="100.0" y1="15.0" y2="10.0" /><path d="M 100.0 14.0 a86.0,86.0 0 0,1 42.46469731375804,11.215312516191453" fill="none" id="id25" stroke="none" /><text fill="#e1ed5e" style="font-size:6.75px; font-family:Arial;" text-anchor="middle"><textPath startOffset="22.20632615414155" xlink:href="#id25">January</textPath></text><path d="M 100.36148047927253 79.00311137660856 l 0.26922585666121124 -15.638203584959694 a36.64052089690561,36.64052089690561 0 0,0 0.6305194440346449,0.016284457025858817 l -0.538371935890724 15.631252335791475" fill="#ff0000" stroke="none" /><path d="M 101.08401301168833 79.027996857942 l 1.7190353986778417 -33.25754893498089 a54.3019465476803,54.3019465476803 0 0,0 0.9330572922040891,0.05628456393468971 l -2.2912547397215426 33.223031101665896" fill="#cfff1d" stroke="none" /><path d="M 101.44485096284872 79.0497635885617 l 2.2500043491282824 -32.62490336585495 a53.70239806501153,53.70239806501153 0 0,0 0.9216605293999515,0.07153859551044799 l -2.811255067890575 32.581339508156034" fill="#d8ff1c" stroke="none" /><path d="M 101.80526077348638 79.07773832637324 l 3.3904468345986793 -39.29394406936548 a60.43994384205767,60.43994384205767 0 0,0 1.0357531956587278,0.09835724620645374 l -4.066325157347651 39.22976127864385" fill="#76ff27" stroke="none" /><path d="M 102.52436894288641 79.15227682838746 l 5.982992338124429 -49.41106899393103 a70.77197943061003,70.77197943061003 0 0,0 1.2081291552485414,0.15684983789018175 l -6.832636221880817 49.30076083287671" fill="#37ff7c" stroke="none" /><path d="M 103.2404852339499 79.25152402106235 l 6.999532297688059 -44.81724718904369 a66.3605456094856,66.3605456094856 0 0,0 1.127088975409172,0.18597933821351 l -7.7699504792361065 44.69012158789056" fill="#30ff39" stroke="none" /><path d="M 103.59715602781102 79.31037775812273 l 8.473995068502925 -48.739547434517554 a70.47071938573967,70.47071938573967 0 0,0 1.1933205539503529,0.2180717037214034 l -9.311710743556178 48.586460249445416" fill="#37ff78" stroke="none" /><path d="M 104.66035177308747 79.52364482259891 l 12.425875377874146 -54.59601549754047 a76.99220737847489,76.99220737847489 0 0,0 1.2897159449626994,0.30523409512171473 l -13.363815009799369 54.37403549027788" fill="#42ffd4" stroke="none" /><path d="M 105.01212808612495 79.60689891045804 l 12.86341696513086 -52.33804045292368 a74.89562110664178,74.89562110664178 0 0,0 1.2492985880986116,0.318474026899753 l -13.762424441914495 52.108863429855056" fill="#3effb7" stroke="none" /><path d="M 106.0581310904928 79.89281104454417 l 15.27190655179721 -50.688092773190846 a73.93877481308411,73.93877481308411 0 0,0 1.2154641233011887,0.3776506196858613 l -16.142156047809117 50.417702018622464" fill="#3dffaa" stroke="none" /><path d="M 106.40334571778207 80.00007090966166 l 16.307384960050847 -50.933770754272885 a74.48064890672248,74.48064890672248 0 0,0 1.2176421990575874,0.4014374887860623 l -17.18170998135085 50.645519541227586" fill="#3effb1" stroke="none" /><path d="M 107.08798089147638 80.2323363322302 l 17.528863069533326 -48.88623078169035 a72.93384831255179,72.93384831255179 0 0,0 1.1781166855733103,0.4339103178323533 l -18.367762080879213 48.57725719605167" fill="#3bff9c" stroke="none" /><path d="M 107.76421540070413 80.48803036053334 l 19.91787442849674 -50.05489171465958 a74.87219975382165,74.87219975382165 0 0,0 1.1933777608097367,0.4868087525653733 l -20.776536058894866 49.704622075910635" fill="#3effb7" stroke="none" /><path d="M 108.09893153111575 80.62456947434976 l 20.269781278703324 -48.49229030110555 a73.5582177374116,73.5582177374116 0 0,0 1.1640281191494477,0.4983760924711778 l -21.101493155643087 48.13619468067158" fill="#3cffa4" stroke="none" /><path d="M 108.43124777332544 80.76684994638697 l 21.015186074842983 -47.939313141859564 a73.3432497106699,73.3432497106699 0 0,0 1.1519007259207181,0.5168242786204021 l -21.837268919230482 47.570468532722636" fill="#3cffa1" stroke="none" /><path d="M 109.08828744355905 81.06846463323043 l 22.548662927773385 -46.97043445660839 a73.1024367268258,73.1024367268258 0 0,0 1.1297067223527073,0.5543421823960454 l -23.353840917136523 46.575337114077506" fill="#3bff9e" stroke="none" /><path d="M 109.41281617654863 81.2277094730956 l 23.6302755609394 -47.126639864268014 a73.71916262595931,73.71916262595931 0 0,0 1.1294460685067325,0.5785461442124498 l -24.43798211703489 46.71290119474307" fill="#3cffa7" stroke="none" /><path d="M 110.05341064243156 81.56283822128135 l 30.16023192729467 -55.311485336155954 a84.0,84.0 0 0,0 1.2635036437118596,0.7031384097592803 l -31.107859660078564 54.7841315288365" fill="#4dd2ff" stroke="none" /><line stroke="#e1ed5e" stroke-width="0.3" x1="143.23703022742887" x2="145.7803849466894" y1="26.81831364943548" y2="22.513508569990506" /><path d="M 143.74570117128098 25.957352633546492 a86.0,86.0 0 0,1 28.547481713284135,27.462654790039103" fill="none" id="id26" stroke="none" /><text fill="#e1ed5e" style="font-size:6.75px; font-family:Arial;" text-anchor="middle"><textPath startOffset="19.985693538727396" xlink:href="#id26">February</textPath></text><path d="M 111.2981086023043 82.29822771554956 l 23.067195221785457 -36.14146857941593 a63.87541540879658,63.87541540879658 0 0,0 0.9217312909805832,0.5995196712776604 l -23.68589353855032 35.739049983978745" fill="#48ff2c" stroke="none" /><path d="M 111.60114157652 82.49532879139004 l 30.59121268359536 -46.15831264250687 a76.3751940805301,76.3751940805301 0 0,0 1.0896023623960043,0.735704378969922 l -31.381219740397906 45.62489635123828" fill="#41ffcb" stroke="none" /><path d="M 111.90073688211348 82.69761687909136 l 29.709571408759157 -43.19450064011952 a73.42540909560407,73.42540909560407 0 0,0 1.0351893903114155,0.7252163225089081 l -30.448691938654225 42.67669947484668" fill="#3cffa3" stroke="none" /><path d="M 112.77801427241765 83.33499621200491 l 37.783832062444006 -49.27743004676301 a83.09575732154809,83.09575732154809 0 0,0 1.1275993162387439,0.8801091520083236 l -38.62646393384218 48.619742505531455" fill="#4cddff" stroke="none" /><path d="M 113.06298171725822 83.55741782278167 l 31.890140395134182 -40.14062527525915 a72.26646907980052,72.26646907980052 0 0,0 0.9673266121941052,0.7821775140042362 l -32.57637040589278 39.58574166399078" fill="#3aff92" stroke="none" /><path d="M 113.34407831869373 83.78471172551755 l 33.297759841256955 -40.46235055171059 a73.40174255323518,73.40174255323518 0 0,0 0.9687018915569697,0.8112599758039393 l -33.98931926977304 39.883189418512835" fill="#3cffa2" stroke="none" /><path d="M 113.89432698308785 84.25364557470407 l 33.42685100322072 -37.88244251477213 a71.52161734224799,71.52161734224799 0 0,0 0.9161204387823237,0.822501975360757 l -34.073982429599035 37.30144153064208" fill="#39ff87" stroke="none" /><path d="M 114.16331599549186 84.49514656593476 l 33.14637386991215 -36.28597066444752 a70.14624876615855,70.14624876615855 0 0,0 0.8844844597449637,0.8220319107342393 l -33.766066213451964 35.71003416763863" fill="#36ff73" stroke="none" /><path d="M 114.42810811169701 84.74124197986012 l 38.30911525880677 -40.51463401676903 a76.75862158828247,76.75862158828247 0 0,0 0.9522336724267217,0.9160480384207564 l -39.00083217484591 39.84920289158597" fill="#41ffd1" stroke="none" /><path d="M 114.68862486808459 84.99185889309783 l 37.50880730721757 -38.3247225573494 a74.62550684802694,74.62550684802694 0 0,0 0.910303964230134,0.9063948297140826 l -38.16294707161503 37.67339187698521" fill="#3effb3" stroke="none" /><path d="M 115.4437574822437 85.77008943001954 l 33.63519308424828 -30.991537528556357 a66.73621772948196,66.73621772948196 0 0,0 0.7711413158710319,0.8515135013708189 l -34.16367804073535 30.407971239915987" fill="#31ff3f" stroke="none" /><path d="M 115.68641384162765 86.03803664274999 l 45.72738235098949 -40.70044582868342 a82.21698936837043,82.21698936837043 0 0,0 0.9318244010383674,1.0652363725219631 l -46.421198615605704 39.90729389995851" fill="#4ae7ff" stroke="none" /><path d="M 115.9244219780498 86.31012108654704 l 46.64176851739442 -40.096913042907744 a82.50786133496035,82.50786133496035 0 0,0 0.9165813501582334,1.084943213947237 l -47.32506048103977 39.2881108793314" fill="#4be4ff" stroke="none" /><path d="M 116.15771136456269 86.58626213691792 l 41.43896192561492 -34.40161542974074 a74.85776368963289,74.85776368963289 0 0,0 0.8145291372794744,0.9985164112953367 l -42.0249895549708 33.683214848837295" fill="#3effb7" stroke="none" /><path d="M 116.60985879189232 87.15038557335679 l 40.56765395645716 -31.38369314665157 a72.29006475969824,72.29006475969824 0 0,0 0.7529322117001401,0.9907705328755784 l -41.10186210838141 30.68073783789496" fill="#3aff92" stroke="none" /><path d="M 116.82858285166822 87.43820079747576 l 42.77810223455844 -31.93197759265318 a74.38180611189583,74.38180611189583 0 0,0 0.7570558530892663,1.0326233328172794 l -43.32142070016133 31.190891816164406" fill="#3dffb0" stroke="none" /><path d="M 117.04232023915458 87.72973835380427 l 40.525811502779554 -29.17808746611029 a70.93698214889244,70.93698214889244 0 0,0 0.7049358554129089,0.9970817750852237 l -41.02205997799635 28.476179190693273" fill="#38ff7f" stroke="none" /><path d="M 117.2510076193507 88.02491185347247 l 39.923070702202736 -27.71329659623226 a69.59916030677708,69.59916030677708 0 0,0 0.6746993451647442,0.9900380355028721 l -40.39419451303621 27.021980537458983" fill="#36ff6b" stroke="none" /><path d="M 117.65298651832404 88.62581576622439 l 43.87233997312695 -28.267855815966477 a73.19055361988319,73.19055361988319 0 0,0 0.6732569130877193,1.0649307535073729 l -44.35242448246062 27.5084774147449" fill="#3bff9f" stroke="none" /><line stroke="#e1ed5e" stroke-width="0.3" x1="172.23445277983987" x2="176.4835382374775" y1="55.19839476539836" y2="52.563006222186495" /><path d="M 173.08426987136738 54.67131705675599 a86.0,86.0 0 0,1 12.851231095245387,41.99856678651699" fill="none" id="id27" stroke="none" /><text fill="#e1ed5e" style="font-size:6.75px; font-family:Arial;" text-anchor="middle"><textPath startOffset="22.20632615414155" xlink:href="#id27">March</textPath></text><path d="M 118.03404312379186 89.2402003453031 l 43.16551205594132 -25.75419491492687 a71.26469921095381,71.26469921095381 0 0,0 0.6194610187019866,1.0588596822011762 l -43.60243274911363 25.007355820371796" fill="#38ff83" stroke="none" /><path d="M 118.21658344932153 89.55222093294921 l 41.34472325902062 -23.71248897469255 a68.66202130354856,68.66202130354856 0 0,0 0.5791882098733241,1.0303111978074584 l -41.74676911018637 22.9972942669503" fill="#34ff5d" stroke="none" /><path d="M 118.3937258080291 89.86733742301442 l 42.63306917775041 -23.485535726038798 a69.67390446485567,69.67390446485567 0 0,0 0.5696402424972458,1.0554568559880046 l -43.03101751946612 22.748197886718334" fill="#36ff6c" stroke="none" /><path d="M 118.73160827565052 90.50648371742162 l 42.267180326805686 -21.421767888068413 a68.38572224023802,68.38572224023802 0 0,0 0.5231181683258889,1.0545743062416761 l -42.62965850808499 20.69103399332779" fill="#34ff58" stroke="none" /><path d="M 118.89224826269711 90.83032412892265 l 45.56441829791766 -22.115469860252755 a71.64790441832082,71.64790441832082 0 0,0 0.5289724051652227,1.1141507900602048 l -45.93834889692464 21.32787665455201" fill="#39ff89" stroke="none" /><path d="M 119.04729006885535 91.15688171328212 l 43.33206248674525 -20.1178515574928 a68.77442402211156,68.77442402211156 0 0,0 0.48927331433732374,1.078048892506803 l -43.671938118045915 19.368980656143933" fill="#34ff5e" stroke="none" /><path d="M 119.34039704204932 91.81776055985345 l 44.13097695201569 -18.670258907503772 a68.9178640426779,68.9178640426779 0 0,0 0.4528176487626233,1.09653385365241 l -44.44581628766451 17.90785048339806" fill="#34ff60" stroke="none" /><path d="M 119.61058180528143 92.48833698450437 l 47.83360824546054 -18.32224813739923 a72.22264005875351,72.22264005875351 0 0,0 0.43469572903453113,1.16476843669325 l -48.1419085629967 17.49615656367665" fill="#3aff91" stroke="none" /><path d="M 119.7369772167798 92.82701384747503 l 42.84300122897619 -15.570380974386921 a66.58464125112323,66.58464125112323 0 0,0 0.38221777943842733,1.08058113247215 l -43.10467208922443 14.830602215488158" fill="#31ff3c" stroke="none" /><path d="M 119.97218684219823 93.5106431181261 l 49.62447188285257 -16.12396832989486 a73.17825758259352,73.17825758259352 0 0,0 0.3789397247383205,1.2013424820382737 l -49.894667091359096 15.267375681430167" fill="#3bff9f" stroke="none" /><path d="M 120.08093135843002 93.85539295169968 l 48.785477564756086 -14.927972410664813 a72.01830241702373,72.01830241702373 0 0,0 0.35252651373790844,1.1885441540067516 l -49.0352099756057 14.085998869911531" fill="#3aff8e" stroke="none" /><path d="M 120.28053869075195 94.5502522615342 l 49.496061876698406 -13.300487496345639 a72.25195712304462,72.25195712304462 0 0,0 0.31241632077724113,1.2038675265925958 l -49.71767452934595 12.446523544204194" fill="#3aff92" stroke="none" /><path d="M 120.37134235888165 94.90015583598534 l 43.83208567947217 -10.973101448642971 a66.1847395744935,66.1847395744935 0 0,0 0.2671569066284162,1.1075378535834843 l -44.014475386361404 10.21697836340008" fill="#30ff36" stroke="none" /><path d="M 120.45610955862082 95.25157060432595 l 49.61256940569523 -11.516450979391685 a71.93167664818878,71.93167664818878 0 0,0 0.26959174783651985,1.208526943921623 l -49.80345554053379 10.660745865920099" fill="#39ff8d" stroke="none" /><path d="M 120.6074358757038 95.95851677861258 l 49.7231291012611 -9.751586426846742 a71.67033654379,71.67033654379 0 0,0 0.2270047882069976,1.2126686556973623 l -49.88361961337796 8.894239693686819" fill="#39ff89" stroke="none" /><path d="M 120.67395015179393 96.31383870115 l 44.53419114584358 -7.9404376363533 a66.23654198622336,66.23654198622336 0 0,0 0.1904714985659818,1.1241735665097479 l -44.66427450592978 7.172678281527714" fill="#30ff37" stroke="none" /><path d="M 120.73433829027371 96.67025291283417 l 50.43795754915879 -8.099879527415979 a72.08420117893003,72.08420117893003 0 0,0 0.18619729000442026,1.2268074992313005 l -50.56991073260251 7.230472915792595" fill="#3aff8f" stroke="none" /><path d="M 120.83666639777658 97.38593545837742 l 50.69643422472417 -6.360122514976481 a72.09383134496076,72.09383134496076 0 0,0 0.14387747725171915,1.232654360598103 l -50.798402054979476 5.486524416053525" fill="#3aff90" stroke="none" /><line stroke="#e1ed5e" stroke-width="0.3" x1="184.98032266829074" x2="189.97916517819016" y1="98.17113171792111" y2="98.06355123074" /><path d="M 185.9800911702706 98.14961562048488 a86.0,86.0 0 0,1 -9.607161424134198,41.387399972396054" fill="none" id="id28" stroke="none" /><text fill="#e1ed5e" style="font-size:6.75px; font-family:Arial;" text-anchor="middle"><textPath startOffset="21.466115282336823" xlink:href="#id28">April</textPath></text><line stroke="#e1ed5e" stroke-width="0.3" x1="174.80103733775053" x2="179.2010983576182" y1="140.37084112569926" y2="142.7455964860345" /><path d="M 175.68104954172406 140.8457921977663 a86.0,86.0 0 0,1 -30.038265399797805,32.042727171017184" fill="none" id="id29" stroke="none" /><text fill="#e1ed5e" style="font-size:6.75px; font-family:Arial;" text-anchor="middle"><textPath startOffset="22.206326154141568" xlink:href="#id29">May</textPath></text><line stroke="#e1ed5e" stroke-width="0.3" x1="143.8653032363475" x2="146.44561519142675" y1="172.8068346515853" y2="177.08958963109032" /><path d="M 144.38136562736335 173.6633856474863 a86.0,86.0 0 0,1 -40.68145358897372,12.25698825130547" fill="none" id="id30" stroke="none" /><text fill="#e1ed5e" style="font-size:6.75px; font-family:Arial;" text-anchor="middle"><textPath startOffset="21.466115282336833" xlink:href="#id30">June</textPath></text><line stroke="#e1ed5e" stroke-width="0.3" x1="102.19456741930631" x2="102.32365962044197" y1="184.97166512339345" y2="189.96999836594603" /><path d="M 102.22038585953345 185.97133177190398 a86.0,86.0 0 0,1 -42.740103519485714,-10.115201625700543" fill="none" id="id31" stroke="none" /><text fill="#e1ed5e" style="font-size:6.75px; font-family:Arial;" text-anchor="middle"><textPath startOffset="22.20632615414155" xlink:href="#id31">July</textPath></text><line stroke="#e1ed5e" stroke-width="0.3" x1="58.666819895761336" x2="56.23545636021788" y1="174.27360380694188" y2="178.64263932499728" /><path d="M 58.180547188652646 175.14741091055294 a86.0,86.0 0 0,1 -31.652253787137756,-30.449443065178592" fill="none" id="id32" stroke="none" /><text fill="#e1ed5e" style="font-size:6.75px; font-family:Arial;" text-anchor="middle"><textPath startOffset="22.20632615414155" xlink:href="#id32">August</textPath></text><line stroke="#e1ed5e" stroke-width="0.3" x1="26.63291911575756" x2="22.317208475507996" y1="142.92168965132927" y2="145.44649492493687" /><path d="M 25.769776987707644 143.4266507060508 a86.0,86.0 0 0,1 -11.730757126820373,-40.83630448921669" fill="none" id="id33" stroke="none" /><text fill="#e1ed5e" style="font-size:6.75px; font-family:Arial;" text-anchor="middle"><textPath startOffset="21.46611528233685" xlink:href="#id33">September</textPath></text><line stroke="#e1ed5e" stroke-width="0.3" x1="15.007084014347285" x2="10.007500721073583" y1="101.09737516637583" y2="101.16192664675087" /><path d="M 14.007167355692545 101.11028546245083 a86.0,86.0 0 0,1 10.666146001902534,-42.60595125391555" fill="none" id="id34" stroke="none" /><text fill="#e1ed5e" style="font-size:6.75px; font-family:Arial;" text-anchor="middle"><textPath startOffset="22.20632615414155" xlink:href="#id34">October</textPath></text><line stroke="#e1ed5e" stroke-width="0.3" x1="26.266209847984243" x2="21.928928074336255" y1="57.711370442889674" y2="55.22380399835377" /><path d="M 25.398753493254645 57.213857153982495 a86.0,86.0 0 0,1 29.58750427330803,-30.492523968695096" fill="none" id="id35" stroke="none" /><text fill="#e1ed5e" style="font-size:6.75px; font-family:Arial;" text-anchor="middle"><textPath startOffset="21.46611528233685" xlink:href="#id35">November</textPath></text><line stroke="#e1ed5e" stroke-width="0.3" x1="56.762969772571076" x2="54.21961505331055" y1="26.818313649435495" y2="22.513508569990535" /><path d="M 56.25429882871897 25.957352633546506 a86.0,86.0 0 0,1 42.265352541879196,-11.944610805530505" fill="none" id="id36" stroke="none" /><text fill="#e1ed5e" style="font-size:6.75px; font-family:Arial;" text-anchor="middle"><textPath startOffset="22.20632615414155" xlink:href="#id36">December</textPath></text></svg>