<?xml version="1.0" encoding="utf-8" ?>
<svg baseProfile="full" height="200mm" version="1.1" viewBox="0,0,200,200" width="200mm" xmlns="http://www.w3.org/2000/svg" xmlns:ev="http://www.w3.org/2001/xml-events" xmlns:xlink="http://www.w3.org/1999/xlink"><defs /><rect fill="#1a1a1a" height="200" width="200" x="0" y="0" /><text alignment-baseline="middle" fill="#e1ed5e" style="dominant-baseline: central; font-size:9.0px; font-family:Arial;" text-anchor="middle" x="100.0" y="100.0">2022</text><line stroke="#e1ed5e" stroke-width="0.3" x1="100.0" x2="100.0" y1="15.0" y2="10.0" /><path d="M 100.0 14.0 a86.0,86.0 0 0,1 42.46469731375804,11.215312516191453" fill="none" id="id25" stroke="none" /><text fill="#e1ed5e" style="font-size:6.75px; font-family:Arial;" text-anchor="middle"><textPath startOffset="22.20632615414155" xlink:href="#id25">January</textPath></text><path d="M 100.36148047927253 79.00311137660856 l 0.3029212414329056 -17.595427506421267 a38.59803484518193,38.59803484518193 0 0,0 0.6642048441366254,0.0171544515288823 l -0.6057527207643988 17.587606262750025" fill="#ff0000" stroke="none" /><path d="M 101.08401301168833 79.027996857942 l 1.9341839728636514 -37.419949685878336 a58.46990395149884,58.46990395149884 0 0,0 1.0046743022096916,0.06060469755579853 l -2.578020323912955 37.38111171894223" fill="#a1ff22" stroke="none" /><path d="M 101.44485096284872 79.0497635885617 l 2.5316071759223933 -36.70812436730273 a57.79531803719797,57.79531803719797 0 0,0 0.9919047442633233,0.0769908985154724 l -3.1631021095480576 36.659108206598795" fill="#abff21" stroke="none" /><path d="M 101.80526077348638 79.07773832637324 l 3.814783531142415 -44.21183933037244 a65.37611193383376,65.37611193383376 0 0,0 1.120343808262971,0.1063901441454061 l -4.57525246649563 44.13962364171186" fill="#3eff2d" stroke="none" /><path d="M 102.52436894288641 79.15227682838746 l 6.731803137426261 -55.59518890863281 a77.00126965763928,77.00126965763928 0 0,0 1.3144676694504462,0.1706556289693816 l -7.687785535384553 55.47107495649929" fill="#41ffd0" stroke="none" /><path d="M 103.2404852339499 79.25152402106235 l 7.875569751584223 -50.426420123511456 a72.03771591073556,72.03771591073556 0 0,0 1.2235118724678207,0.20188994241144986 l -8.742410830190918 50.28338391816038" fill="#39ff87" stroke="none" /><path d="M 103.59715602781102 79.31037775812273 l 9.53457122536871 -54.83962201417041 a76.66230493887863,76.66230493887863 0 0,0 1.2981661744648771,0.23723157071409182 l -10.477132520936488 54.667374962105576" fill="#41ffcb" stroke="none" /><path d="M 104.66035177308747 79.52364482259891 l 13.981055319262426 -61.429065532203275 a84.0,84.0 0 0,0 1.407105252149906,0.3330163514365254 l -15.036384258374856 61.17930326862588" fill="#4dd2ff" stroke="none" /><path d="M 105.01212808612495 79.60689891045804 l 14.473358110807125 -58.88849007588461 a81.64101218170114,81.64101218170114 0 0,0 1.3618152802860715,0.34715703702699396 l -15.484882279778223 58.63063004268875" fill="#49f0ff" stroke="none" /><path d="M 106.0581310904928 79.89281104454417 l 17.18328599299153 -57.032040603897414 a80.56441028803644,80.56441028803644 0 0,0 1.3243815652554893,0.41149179908400285 l -18.162452930957734 56.72780866993089" fill="#47feff" stroke="none" /><path d="M 106.40334571778207 80.00007090966166 l 18.348361327118422 -57.30846679841314 a81.17410348459973,81.17410348459973 0 0,0 1.327069719777844,0.4375140219055809 l -19.33211386913868 56.98413905224833" fill="#48f6ff" stroke="none" /><path d="M 107.08798089147638 80.2323363322302 l 19.722715447098686 -55.00466374594965 a79.43371063360783,79.43371063360783 0 0,0 1.2831104083993625,0.4725803920276647 l -20.666608181270625 54.657020086115665" fill="#45fff1" stroke="none" /><path d="M 107.76421540070413 80.48803036053334 l 22.41072727341141 -56.31959027276784 a81.61465949269757,81.61465949269757 0 0,0 1.3008449052503386,0.530647299121993 l -23.376856048250136 55.925482087462264" fill="#49f0ff" stroke="none" /><path d="M 108.09893153111575 80.62456947434976 l 22.806677577944992 -54.56141902603558 a80.13622399408823,80.13622399408823 0 0,0 1.2681223248851892,0.5429437989123048 l -23.742483660620497 54.16075569916048" fill="#46fffb" stroke="none" /><path d="M 108.43124777332544 80.76684994638697 l 23.645374681621814 -53.93923314225689 a79.89435130646254,79.89435130646254 0 0,0 1.2547897949699194,0.5629876047584031 l -24.570346595058513 53.52422520698195" fill="#46fff7" stroke="none" /><path d="M 109.08828744355905 81.06846463323043 l 25.370776237620387 -52.84909292402556 a79.62339899555204,79.62339899555204 0 0,0 1.230480037730922,0.6037912105984317 l -26.27672754236174 52.4045465532923" fill="#46fff4" stroke="none" /><path d="M 109.41281617654863 81.2277094730956 l 26.587759798008726 -53.02484846472137 a80.31731219284362,80.31731219284362 0 0,0 1.2305358506241526,0.6303282569614317 l -27.496556136221635 52.559327682447446" fill="#47fffd" stroke="none" /><line stroke="#e1ed5e" stroke-width="0.3" x1="143.23703022742887" x2="145.7803849466894" y1="26.81831364943548" y2="22.513508569990506" /><path d="M 143.74570117128098 25.957352633546492 a86.0,86.0 0 0,1 28.547481713284135,27.462654790039103" fill="none" id="id26" stroke="none" /><text fill="#e1ed5e" style="font-size:6.75px; font-family:Arial;" text-anchor="middle"><textPath startOffset="19.985693538727396" xlink:href="#id26">February</textPath></text><line stroke="#e1ed5e" stroke-width="0.3" x1="172.23445277983987" x2="176.4835382374775" y1="55.19839476539836" y2="52.563006222186495" /><path d="M 173.08426987136738 54.67131705675599 a86.0,86.0 0 0,1 12.851231095245387,41.99856678651699" fill="none" id="id27" stroke="none" /><text fill="#e1ed5e" style="font-size:6.75px; font-family:Arial;" text-anchor="middle"><textPath startOffset="22.20632615414155" xlink:href="#id27">March</textPath></text><line stroke="#e1ed5e" stroke-width="0.3" x1="184.98032266829074" x2="189.97916517819016" y1="98.17113171792111" y2="98.06355123074" /><path d="M 185.9800911702706 98.14961562048488 a86.0,86.0 0 0,1 -9.607161424134198,41.387399972396054" fill="none" id="id28" stroke="none" /><text fill="#e1ed5e" style="font-size:6.75px; font-family:Arial;" text-anchor="middle"><textPath startOffset="21.466115282336823" xlink:href="#id28">April</textPath></text><line stroke="#e1ed5e" stroke-width="0.3" x1="174.80103733775053" x2="179.2010983576182" y1="140.37084112569926" y2="142.7455964860345" /><path d="M 175.68104954172406 140.8457921977663 a86.0,86.0 0 0,1 -30.038265399797805,32.042727171017184" fill="none" id="id29" stroke="none" /><text fill="#e1ed5e" style="font-size:6.75px; font-family:Arial;" text-anchor="middle"><textPath startOffset="22.206326154141568" xlink:href="#id29">May</textPath></text><line stroke="#e1ed5e" stroke-width="0.3" x1="143.8653032363475" x2="146.44561519142675" y1="172.8068346515853" y2="177.08958963109032" /><path d="M 144.38136562736335 173.6633856474863 a86.0,86.0 0 0,1 -40.68145358897372,12.25698825130547" fill="none" id="id30" stroke="none" /><text fill="#e1ed5e" style="font-size:6.75px; font-family:Arial;" text-anchor="middle"><textPath startOffset="21.466115282336833" xlink:href="#id30">June</textPath></text><line stroke="#e1ed5e" stroke-width="0.3" x1="102.19456741930631" x2="102.32365962044197" y1="184.97166512339345" y2="189.96999836594603" /><path d="M 102.22038585953345 185.97133177190398 a86.0,86.0 0 0,1 -42.740103519485714,-10.115201625700543" fill="none" id="id31" stroke="none" /><text fill="#e1ed5e" style="font-size:6.75px; font-family:Arial;" text-anchor="middle"><textPath startOffset="22.20632615414155" xlink:href="#id31">July</textPath></text><line stroke="#e1ed5e" stroke-width="0.3" x1="58.666819895761336" x2="56.23545636021788" y1="174.27360380694188" y2="178.64263932499728" /><path d="M 58.180547188652646 175.14741091055294 a86.0,86.0 0 0,1 -31.652253787137756,-30.449443065178592" fill="none" id="id32" stroke="none" /><text fill="#e1ed5e" style="font-size:6.75px; font-family:Arial;" text-anchor="middle"><textPath startOffset="22.20632615414155" xlink:href="#id32">August</textPath></text><line stroke="#e1ed5e" stroke-width="0.3" x1="26.63291911575756" x2="22.317208475507996" y1="142.92168965132927" y2="145.44649492493687" /><path d="M 25.769776987707644 143.4266507060508 a86.0,86.0 0 0,1 -11.730757126820373,-40.83630448921669" fill="none" id="id33" stroke="none" /><text fill="#e1ed5e" style="font-size:6.75px; font-family:Arial;" text-anchor="middle"><textPath startOffset="21.46611528233685" xlink:href="#id33">September</textPath></text><line stroke="#e1ed5e" stroke-width="0.3" x1="15.007084014347285" x2="10.007500721073583" y1="101.09737516637583" y2="101.16192664675087" /><path d="M 14.007167355692545 101.11028546245083 a86.0,86.0 0 0,1 10.666146001902534,-42.60595125391555" fill="none" id="id34" stroke="none" /><text fill="#e1ed5e" style="font-size:6.75px; font-family:Arial;" text-anchor="middle"><textPath startOffset="22.20632615414155" xlink:href="#id34">October</textPath></text><line stroke="#e1ed5e" stroke-width="0.3" x1="26.266209847984243" x2="21.928928074336255" y1="57.711370442889674" y2="55.22380399835377" /><path d="M 25.398753493254645 57.213857153982495 a86.0,86.0 0 0,1 29.58750427330803,-30.492523968695096" fill="none" id="id35" stroke="none" /><text fill="#e1ed5e" style="font-size:6.75px; font-family:Arial;" text-anchor="middle"><textPath startOffset="21.46611528233685" xlink:href="#id35">November</textPath></text><line stroke="#e1ed5e" stroke-width="0.3" x1="56.762969772571076" x2="54.21961505331055" y1="26.818313649435495" y2="22.513508569990535" /><path d="M 56.25429882871897 25.957352633546506 a86.0,86.0 0 0,1 42.265352541879196,-11.944610805530505" fill="none" id="id36" stroke="none" /><text fill="#e1ed5e" style="font-size:6.75px; font-family:Arial;" text-anchor="middle"><textPath startOffset="22.20632615414155" xlink:href="#id36">December</textPath></text></svg>