<?xml version="1.0" encoding="utf-8" ?>
<svg baseProfile="full" height="200mm" version="1.1" viewBox="0,0,200,200" width="200mm" xmlns="http://www.w3.org/2000/svg" xmlns:ev="http://www.w3.org/2001/xml-events" xmlns:xlink="http://www.w3.org/1999/xlink"><defs /><rect fill="#1a1a1a" height="200" width="200" x="0" y="0" /><text alignment-baseline="middle" fill="#e1ed5e" style="dominant-baseline: central; font-size:9.0px; font-family:Arial;" text-anchor="middle" x="100.0" y="100.0">2021</text><line stroke="#e1ed5e" stroke-width="0.3" x1="100.0" x2="100.0" y1="15.0" y2="10.0" /><path d="M 100.0 14.0 a86.0,86.0 0 0,1 42.46469731375804,11.215312516191453" fill="none" id="id13" stroke="none" /><text fill="#e1ed5e" style="font-size:6.75px; font-family:Arial;" text-anchor="middle"><textPath startOffset="22.20632615414155" xlink:href="#id13">January</textPath></text><path d="M 100.0 79.0 l 0.0 -10.690819263573857 a31.690819263573857,31.690819263573857 0 0,0 0.5455053588540835,0.004695336845845262 l -0.18402487958155508 10.68923530333657" fill="#ff790b" stroke="none" /><path d="M 100.72285384407766 79.0124445844662 l 0.37389291753518733 -10.855719161676468 a31.862156067327177,31.862156067327177 0 0,0 0.5479671315979568,0.023596617366088535 l -0.5607008815224757 10.847674817786185" fill="#ff7c0b" stroke="none" /><path d="M 101.80526077348638 79.07773832637324 l 1.1619702123345739 -13.466777319086903 a34.5168142006993,34.5168142006993 0 0,0 0.5915111487488721,0.05617111097046013 l -1.3936064881736903 13.444780663601264" fill="#ffa00e" stroke="none" /><path d="M 103.2404852339499 79.25152402106235 l 1.5560914901275753 -9.963485272415967 a31.084267920840727,31.084267920840727 0 0,0 0.5279452626627694,0.08711549194892476 l -1.7273659589292198 9.935223517527419" fill="#ff710a" stroke="none" /><path d="M 104.66035177308747 79.52364482259891 l 1.9282412868379608 -8.472183083910288 a29.68884345972248,29.68884345972248 0 0,0 0.4973253281241891,0.11770083723008251 l -2.0737903019246735 8.437736334539336" fill="#ff5d08" stroke="none" /><path d="M 108.43124777332544 80.76684994638697 l 5.439668900445899 -12.408835680911727 a34.548771187910226,34.548771187910226 0 0,0 0.5426096439415472,0.24345313054509254 l -5.652460662854226 12.313362219850102" fill="#ffa00e" stroke="none" /><path d="M 109.73455568895987 81.39251694778311 l 5.753336727130619 -10.997432144252164 a33.41146233379374,33.41146233379374 0 0,0 0.5073052508506137,0.27098489591097263 l -5.941787024509543 10.896768521839437" fill="#ff910d" stroke="none" /><path d="M 110.36928655335952 81.73862282372117 l 2.9550924702423584 -5.204220937687709 a26.98468771749623,26.98468771749623 0 0,0 0.4019475472112163,0.23283396326371955 l -3.044236749918903 5.15258281703394" fill="#ff3705" stroke="none" /><line stroke="#e1ed5e" stroke-width="0.3" x1="143.23703022742887" x2="145.7803849466894" y1="26.81831364943548" y2="22.513508569990506" /><path d="M 143.74570117128098 25.957352633546492 a86.0,86.0 0 0,1 28.547481713284135,27.462654790039103" fill="none" id="id14" stroke="none" /><text fill="#e1ed5e" style="font-size:6.75px; font-family:Arial;" text-anchor="middle"><textPath startOffset="19.985693538727396" xlink:href="#id14">February</textPath></text><path d="M 110.99172775467656 82.1063720568725 l 5.271132619608835 -8.58096998390759 a31.070644714129642,31.070644714129642 0 0,0 0.4533071649454904,0.2838609051023869 l -5.418058936926589 8.488964737482258" fill="#ff710a" stroke="none" /><path d="M 111.90073688211348 82.69761687909136 l 3.0092619510495386 -4.3751411113448135 a26.310133447872474,26.310133447872474 0 0,0 0.3709338679673177,0.259862879332967 l -3.0841269586005073 4.3226933892479105" fill="#ff2d04" stroke="none" /><path d="M 112.48926042617603 83.11751280151076 l 2.556297208934952 -3.4555012412846167 a25.298272239973656,25.298272239973656 0 0,0 0.3478558767885677,0.26199783458852466 l -2.6153992394819023 3.4109868171902447" fill="#ff1e03" stroke="none" /><path d="M 113.89432698308785 84.25364557470407 l 6.5543529445945685 -7.428007460864551 a30.90630291082273,30.90630291082273 0 0,0 0.39587885224006597,0.35542394229714463 l -6.681242784430625 7.314084509798109" fill="#ff6e0a" stroke="none" /><path d="M 114.68862486808459 84.99185889309783 l 8.069572103585113 -8.245106529071538 a32.536887605012765,32.536887605012765 0 0,0 0.39689456087542174,0.39519016949834657 l -8.210302464627857 8.104980508923074" fill="#ff850c" stroke="none" /><path d="M 115.19652480421416 85.50635884689758 l 9.1704386206649 -8.746279053722224 a33.672582285428746,33.672582285428746 0 0,0 0.39642679498078565,0.42288046482656216 l -9.319632737616148 8.587129172017606" fill="#ff940d" stroke="none" /><path d="M 115.68641384162765 86.03803664274999 l 6.073682351309095 -5.405985796926712 a29.131070024368068,29.131070024368068 0 0,0 0.3301634137372882,0.3774338564187222 l -6.1658376286242325 5.300636384305043" fill="#ff5607" stroke="none" /><path d="M 116.15771136456269 86.58626213691792 l 9.500209107292491 -7.886841875958673 a33.347317435729046,33.347317435729046 0 0,0 0.3628529675843214,0.44481483404054756 l -9.63456056695322 7.722142872310024" fill="#ff900d" stroke="none" /><path d="M 116.60985879189232 87.15038557335679 l 13.088304455544774 -10.125291723392577 a37.5476658778462,37.5476658778462 0 0,0 0.39107513885290696,0.5146090414179225 l -13.260655534621796 9.89849790609362" fill="#ffc812" stroke="none" /><path d="M 117.45458315368197 88.32363383020206 l 8.91665431984761 -5.964858623741401 a31.727826558109484,31.727826558109484 0 0,0 0.2997575019956719,0.4565512407195284 l -9.018008457201205 5.810489319044199" fill="#ff7a0b" stroke="none" /><path d="M 117.65298651832404 88.62581576622439 l 9.752338479474991 -6.283633336520487 a32.6013858536849,32.6013858536849 0 0,0 0.29988990814616234,0.4743538159700107 l -9.85905598386711 6.1148318728362705" fill="#ff860c" stroke="none" /><line stroke="#e1ed5e" stroke-width="0.3" x1="172.23445277983987" x2="176.4835382374775" y1="55.19839476539836" y2="52.563006222186495" /><path d="M 173.08426987136738 54.67131705675599 a86.0,86.0 0 0,1 12.851231095245387,41.99856678651699" fill="none" id="id15" stroke="none" /><text fill="#e1ed5e" style="font-size:6.75px; font-family:Arial;" text-anchor="middle"><textPath startOffset="22.20632615414155" xlink:href="#id15">March</textPath></text><path d="M 118.03404312379186 89.2402003453031 l 9.558327769690433 -5.702863807623547 a32.13033177228504,32.13033177228504 0 0,0 0.27928958195663317,0.4773964286120327 l -9.655077026117393 5.537487966657619" fill="#ff7f0b" stroke="none" /><path d="M 118.21658344932153 89.55222093294921 l 7.448480438552476 -4.271935965585481 a29.586576601740745,29.586576601740745 0 0,0 0.24957314120545085,0.4439627700850427 l -7.520911221050359 4.143089685565644" fill="#ff5c08" stroke="none" /><path d="M 118.3937258080291 89.86733742301442 l 21.735847339294697 -11.973757204633586 a45.81567893797466,45.81567893797466 0 0,0 0.37458004773606746,0.6940399396049658 l -21.938735486249232 11.59783628169616" fill="#d0ff1d" stroke="none" /><path d="M 118.89224826269711 90.83032412892265 l 9.70604261164463 -4.710993816198147 a31.78891680917591,31.78891680917591 0 0,0 0.23469576561470426,0.49432913726706224 l -9.78569657110109 4.543222263290543" fill="#ff7b0b" stroke="none" /><path d="M 119.04729006885535 91.15688171328212 l 5.84673555379429 -2.7144740226276713 a27.446137281777567,27.446137281777567 0 0,0 0.19525663420016526,0.4302221112124051 l -5.892594504957803 2.6134299025732037" fill="#ff3e05" stroke="none" /><path d="M 119.196687751892 91.48605970444005 l 44.68727059145879 -19.819291677008895 a69.88513552699442,69.88513552699442 0 0,0 0.478244915196782,1.103855201665964 l -45.021806216498256 19.04713733075633" fill="#3bff9c" stroke="none" /><path d="M 119.34039704204932 91.81776055985345 l 21.332914995381618 -9.025203467591767 a44.16349627823072,44.16349627823072 0 0,0 0.2901716532227607,0.7026736744879899 l -21.485108335490576 8.656655222650475" fill="#e4ff1b" stroke="none" /><path d="M 119.61058180528143 92.48833698450437 l 16.29244459272785 -6.240679378836478 a38.44677133215604,38.44677133215604 0 0,0 0.23140454682437048,0.6200491383869128 l -16.397453728053847 5.959307103420231" fill="#ffd313" stroke="none" /><path d="M 119.7369772167798 92.82701384747503 l 15.26146879393318 -5.546457450080357 a37.23809163645002,37.23809163645002 0 0,0 0.21375891539504988,0.6043252389069238 l -15.354680790138039 5.282934584746819" fill="#ffc412" stroke="none" /><path d="M 119.85752413597 93.16781622104841 l 29.15518726960644 -10.031139641164065 a51.83259163979497,51.83259163979497 0 0,0 0.2830126299162675,0.8461717409221771 l -29.32353719329448 9.527794797319574" fill="#8bff24" stroke="none" /><path d="M 119.97218684219823 93.5106431181261 l 14.846270975926155 -4.82384585568934 a36.610293101991346,36.610293101991346 0 0,0 0.18957945773715368,0.601018688285311 l -14.927105917431515 4.567577000977611" fill="#ffbb11" stroke="none" /><path d="M 120.18372546131832 94.20196356495316 l 18.826646150389227 -5.408197834383418 a40.58803739754943,40.58803739754943 0 0,0 0.18711709413476132,0.673159744855968 l -18.91695001509035 5.083326786108498" fill="#ffee16" stroke="none" /><path d="M 120.28053869075195 94.5502522615342 l 21.068676008901615 -5.661534497815796 a42.81609684700783,42.81609684700783 0 0,0 0.1851361261287942,0.7134050157530778 l -21.163008466900713 5.298033056513868" fill="#f4ff19" stroke="none" /><path d="M 120.37134235888165 94.90015583598534 l 15.386830553798381 -3.852001336979093 a36.8616666460808,36.8616666460808 0 0,0 0.14879334568130578,0.6168444783371753 l -15.450856699740507 3.586571626982512" fill="#ffbf11" stroke="none" /><path d="M 120.53481517161879 95.60439243477599 l 7.154998487172582 -1.5315728540303637 a28.317084033865175,28.317084033865175 0 0,0 0.09792412286540422,0.4775128001360968 l -7.180301905952984 1.408184397730855" fill="#ff4a06" stroke="none" /><path d="M 120.6074358757038 95.95851677861258 l 48.15040548659877 -9.443147466324174 a70.0676531188789,70.0676531188789 0 0,0 0.22192853450177713,1.1855511054231576 l -48.30581974501041 8.612918283438452" fill="#3bff9f" stroke="none" /><path d="M 120.67395015179393 96.31383870115 l 6.095510923252069 -1.0868284143589009 a27.19164351507281,27.19164351507281 0 0,0 0.07819298733718792,0.46149943751530637 l -6.1133157721094795 0.9817431885277565" fill="#ff3a05" stroke="none" /><path d="M 120.78858239683441 97.02765380044208 l 19.526735764104117 -2.7919276904155104 a40.72532052539709,40.72532052539709 0 0,0 0.09324935002443413,0.6948159694184391 l -19.571901113186385 2.4553933789324067" fill="#fff016" stroke="none" /><path d="M 120.83666639777658 97.38593545837742 l 2.6826017799959123 -0.3365458782374712 a23.703630048323156,23.703630048323156 0 0,0 0.04730527465994029,0.4052827044419811 l -2.6879974076594415 0.2903194354706374" fill="#ff0701" stroke="none" /><path d="M 120.87857604477298 97.74499172005257 l 14.340293682575183 -1.548835558600302 a35.4236928173783,35.4236928173783 0 0,0 0.060258863161264,0.6067985285343109 l -14.364829671418676 1.301761499361556" fill="#ffac0f" stroke="none" /><path d="M 120.91429891909075 98.10471618934814 l 62.74289675727228 -5.6858514319555935 a84.0,84.0 0 0,0 0.118102064722021,1.441144331168925 l -62.831473305813795 4.6049931835789" fill="#4dd2ff" stroke="none" /><path d="M 120.94382443527127 98.46500227214037 l 2.2792295622533367 -0.16704743730745775 a23.28534291601075,23.28534291601075 0 0,0 0.02585716357432813,0.3999988758433655 l -2.28176731683208 0.12778949721105698" fill="#ff0100" stroke="none" /><path d="M 120.96714384426684 98.82574320788733 l 9.378656100217146 -0.5252480122408385 a30.39335274119434,30.39335274119434 0 0,0 0.024758123766114488,0.5226048622540325 l -9.386307832216758 0.3637320433638063" fill="#ff6709" stroke="none" /><line stroke="#e1ed5e" stroke-width="0.3" x1="184.98032266829074" x2="189.97916517819016" y1="98.17113171792111" y2="98.06355123074" /><path d="M 185.9800911702706 98.14961562048488 a86.0,86.0 0 0,1 -9.607161424134198,41.387399972396054" fill="none" id="id16" stroke="none" /><text fill="#e1ed5e" style="font-size:6.75px; font-family:Arial;" text-anchor="middle"><textPath startOffset="21.466115282336823" xlink:href="#id16">April</textPath></text><path d="M 120.99824983174949 100.27111621757518 l 9.51071032523647 0.12279632019296437 a30.51150302669418,30.51150302669418 0 0,0 -0.011300788472753934,0.5251032347332386 l -9.507187474078709 -0.28648937071631786" fill="#ff6909" stroke="none" /><path d="M 120.9764740272857 100.99374915477107 l 36.8129398797959 1.7439931917346592 a57.85422709603722,57.85422709603722 0 0,0 -0.05568785934249958,0.9943441375482552 l -36.77746566956587 -2.3774090456183377" fill="#4bff2c" stroke="none" /><path d="M 120.8583938346157 102.4346265915055 l 6.471335593149798 0.7553451067498673 a27.51526903431151,27.51526903431151 0 0,0 -0.058959313295759645,0.4699637375530169 l -6.45737477060719 -0.8666265985902791" fill="#ff3f05" stroke="none" /><path d="M 120.81339534386255 102.79330883721812 l 7.072960097759002 0.9492426209156328 a28.13637345560431,28.13637345560431 0 0,0 -0.06855353565749059,0.4794632687208676 l -7.05557251108491 -1.0708513616169097" fill="#ff4706" stroke="none" /><path d="M 120.64145759157962 103.86396538481128 l 9.17179560571095 1.7169088268014725 a30.331109824264608,30.331109824264608 0 0,0 -0.10048273063793244,0.5123592787120222 l -9.140882942097353 -1.8745318325814397" fill="#ff6609" stroke="none" /><path d="M 120.49622156327973 104.57218783832717 l 9.775878911999758 2.18075095121347 a31.016161101604748,31.016161101604748 0 0,0 -0.12072587883104634,0.5200839263143473 l -9.73689246723816 -2.3487035348763823" fill="#ff700a" stroke="none" /><path d="M 120.23288151984713 105.62410040840565 l 11.182210662850812 3.108300490670423 a32.60617797764089,32.60617797764089 0 0,0 -0.1549684116748035,0.5394653709856406 l -11.12704961428991 -3.3003233371606457" fill="#ff860c" stroke="none" /><path d="M 120.13307415673323 105.97154293290107 l 7.598748492933065 2.253816407202359 a28.92594896881295,28.92594896881295 0 0,0 -0.14569480860734516,0.47613906437401304 l -7.558826911819587 -2.3842824441284294" fill="#ff5307" stroke="none" /><path d="M 120.02730092923936 106.31721596034902 l 2.3905012652981945 0.7540363426770474 a23.506604696690335,23.506604696690335 0 0,0 -0.12504142366277113,0.38483793107186964 l -2.3771675906191763 -0.7950731737267123" fill="#ff0400" stroke="none" /><path d="M 119.79798401119884 107.00284435728193 l 7.890393263826683 2.7909506297746574 a29.369451073737217,29.369451073737217 0 0,0 -0.17268641310478763,0.4751588430010889 l -7.841182589716669 -2.9263572697818776" fill="#ff5908" stroke="none" /><path d="M 119.41010516605496 108.01547362559984 l 11.160636049041122 4.608825306750765 a33.07481129158143,33.07481129158143 0 0,0 -0.22183593893660888,0.5243546303691372 l -11.079649128912203 -4.800254462786065" fill="#ff8c0c" stroke="none" /><path d="M 119.12269723197855 108.67885076344098 l 7.069576250679542 3.2085325880603386 a28.763606747692556,28.763606747692556 0 0,0 -0.20850243134456722,0.44909568786912424 l -7.013299202495143 -3.3297483432082937" fill="#ff5007" stroke="none" /><path d="M 118.81262510543309 109.33194174019688 l 11.741728442390722 5.824446356609642 a34.106958540251455,34.106958540251455 0 0,0 -0.26541926353297446,0.5236973872826144 l -11.639730509071478 -6.025697955594951" fill="#ff9a0e" stroke="none" /><path d="M 118.64920377521936 109.65438752849418 l 6.563725326874077 3.3979331611163723 a28.391105460894366,28.391105460894366 0 0,0 -0.22840981220669734,0.43206528620989976 l -6.5042630064424864 -3.5104134624124064" fill="#ff4b07" stroke="none" /><line stroke="#e1ed5e" stroke-width="0.3" x1="174.80103733775053" x2="179.2010983576182" y1="140.37084112569926" y2="142.7455964860345" /><path d="M 175.68104954172406 140.8457921977663 a86.0,86.0 0 0,1 -30.038265399797805,32.042727171017184" fill="none" id="id17" stroke="none" /><text fill="#e1ed5e" style="font-size:6.75px; font-family:Arial;" text-anchor="middle"><textPath startOffset="22.206326154141568" xlink:href="#id17">May</textPath></text><path d="M 118.30583269289576 110.29060199501025 l 16.25790962754034 9.139364488608654 a39.65067314369403,39.65067314369403 0 0,0 -0.33957592457656305,0.5920792474391019 l -16.098181706811395 -9.417863581906072" fill="#ffe315" stroke="none" /><path d="M 117.94076556474637 110.91462005526583 l 8.548988443276592 5.200946435562076 a31.006750083261927,31.006750083261927 0 0,0 -0.2813277285637968,0.4535898751437226 l -8.458196075044832 -5.347332642071072" fill="#ff700a" stroke="none" /><path d="M 117.75023020441432 111.22182372390056 l 8.315624166232707 5.257197651693775 a30.838075646334904,30.838075646334904 0 0,0 -0.2875212016363333,0.44623928994806933 l -8.223898101219323 -5.399558541563297" fill="#ff6d0a" stroke="none" /><path d="M 116.93607887273984 112.41649034213515 l 17.52669532363429 12.849493962013222 a42.732338669533895,42.732338669533895 0 0,0 -0.4400184183360164,0.5894765781433344 l -17.30291563860318 -13.149283419665872" fill="#f5ff19" stroke="none" /><path d="M 116.498646956653 112.99209946851258 l 9.082817951008838 7.1523970774047925 a32.56089814348509,32.56089814348509 0 0,0 -0.35054456369753995,0.43735824190336986 l -8.958355475256445 -7.307683152886412" fill="#ff850c" stroke="none" /><path d="M 116.0416608686014 113.55231037782055 l 7.401241148896781 6.25271398345497 a30.688901005945734,30.688901005945734 0 0,0 -0.34438425690914165,0.4005966936806927 l -7.292514382416861 -6.37918777629719" fill="#ff6b09" stroke="none" /><path d="M 115.56566222782051 114.09645910891815 l 15.352084186271322 13.90304015345091 a41.7118568547301,41.7118568547301 0 0,0 -0.4865461507492574,0.5280497526064923 l -15.110491627526342 -14.165241160858738" fill="#fffc17" stroke="none" /><path d="M 114.81725581225074 114.88116024355365 l 8.707221618877126 8.744774459486298 a33.34045334124825,33.34045334124825 0 0,0 -0.4101670337392426,0.4014347712309243 l -8.55540463276209 -8.893359333639795" fill="#ff900d" stroke="none" /><path d="M 114.29624159901734 115.38237550388516 l 6.219420162411582 6.691930581337215 a30.13581534741415,30.13581534741415 0 0,0 -0.38301250920991586,0.34987284602431606 l -6.103308103734803 -6.797996193948114" fill="#ff6409" stroke="none" /><path d="M 113.75828350139079 115.86535959552629 l 14.072803090093892 16.228047744386377 a42.48006797956282,42.48006797956282 0 0,0 -0.5565587265967453,0.4743114210894601 l -13.7913788869201 -16.467883555698783" fill="#f8ff18" stroke="none" /><path d="M 112.92097659922987 116.55440617244103 l 8.327831523878471 10.669650588962424 a34.53492599095578,34.53492599095578 0 0,0 -0.47176562525755117,0.3617297643292214 l -8.142937170127427 -10.811419695119017" fill="#ffa00e" stroke="none" /><path d="M 112.34349029814194 116.9893568818739 l 8.621600716068656 11.866615351118218 a35.667943236824655,35.667943236824655 0 0,0 -0.4998143317349855,0.35660425479933366 l -8.416059056484787 -12.013263867761772" fill="#ffaf10" stroke="none" /><path d="M 112.04921762599082 117.19931262002967 l 8.564595459151874 12.225287926437181 a35.92682016583625,35.92682016583625 0 0,0 -0.5095502877993375,0.35047333427597294 l -8.352888286729653 -12.370902050078248" fill="#ffb210" stroke="none" /><path d="M 111.45004920935366 117.60387380957326 l 12.730196501797959 19.572035778296208 a44.347858306090856,44.347858306090856 0 0,0 -0.643504736481432,0.4107151691952797 l -12.391409963269597 -19.788265376315298" fill="#e1ff1b" stroke="none" /><line stroke="#e1ed5e" stroke-width="0.3" x1="143.8653032363475" x2="146.44561519142675" y1="172.8068346515853" y2="177.08958963109032" /><path d="M 144.38136562736335 173.6633856474863 a86.0,86.0 0 0,1 -40.68145358897372,12.25698825130547" fill="none" id="id18" stroke="none" /><text fill="#e1ed5e" style="font-size:6.75px; font-family:Arial;" text-anchor="middle"><textPath startOffset="21.466115282336833" xlink:href="#id18">June</textPath></text><path d="M 110.8373102113329 117.98757091392108 l 1.7025697536292383 2.8258943946513084 a24.299154875978818,24.299154875978818 0 0,0 -0.3601275097267599,0.21276968050715633 l -1.6536743728740964 -2.8547826474522147" fill="#ff1001" stroke="none" /><path d="M 110.21172684928248 118.3499491758327 l 5.222420955452795 9.38442249011937 a31.739695810823076,31.739695810823076 0 0,0 -0.47968835278968847,0.26156433668400875 l -5.060109790794457 -9.472927478563149" fill="#ff7a0b" stroke="none" /><path d="M 109.2508944713604 118.85261126421891 l 10.160747248274927 20.70682122888163 a44.065411985225616,44.065411985225616 0 0,0 -0.6838266450159878,0.32827834568445613 l -9.802807935258706 -20.878653851065646" fill="#e5ff1a" stroke="none" /><path d="M 108.59647513512805 119.15986991738527 l 3.0412445105552153 6.77834208710615 a28.429339783777344,28.429339783777344 0 0,0 -0.44820793502564205,0.19648118709820286 l -2.9241159008718194 -6.829687827498807" fill="#ff4c07" stroke="none" /><path d="M 107.93186726928326 119.44442032107085 l 1.4225174636549678 3.4872025133963476 a24.76618338691057,24.76618338691057 0 0,0 -0.3961161441212062,0.15762278865136142 l -1.3622802434918955 -3.5111721464537777" fill="#ff1702" stroke="none" /><path d="M 106.91757812671514 119.82793768551818 l 3.545455907289685 10.16238306366252 a31.763098397912664,31.763098397912664 0 0,0 -0.5177842836808848,0.17566054165688524 l -3.3700018906715736 -10.221906592217529" fill="#ff7a0b" stroke="none" /><path d="M 106.57524785965236 119.94407469862006 l 2.764820372874118 8.386266985193672 a29.83027211592084,29.83027211592084 0 0,0 -0.4890440933162122,0.15657647517639456 l -2.6200549344669652 -8.432616307029773" fill="#ff5f08" stroke="none" /><path d="M 105.88484417918355 120.15858648285463 l 4.04392124185272 13.852488460459256 a35.43068728638607,35.43068728638607 0 0,0 -0.586915799979339,0.1658682676176289 l -3.804874273768776 -13.920045521415403" fill="#ffac0f" stroke="none" /><path d="M 105.18746579009965 120.34920634021253 l 2.8189489208974647 11.058072587840615 a32.41172390029574,32.41172390029574 0 0,0 -0.5418109148099418,0.13316394066621895 l -2.6281847213443115 -11.104957786820863" fill="#ff830c" stroke="none" /><path d="M 104.48393922423573 120.51570834832081 l 4.963543566411772 22.7100785916751 a44.24617031632796,44.24617031632796 0 0,0 -0.7454606122365157,0.1562185192719315 l -4.571891492745878 -22.79215309167357" fill="#e3ff1b" stroke="none" /><path d="M 103.7750983002368 120.6578951692458 l 1.9558904177116374 10.702921089256094 a31.88016668847215,31.88016668847215 0 0,0 -0.5406740074162785,0.09400310658749823 l -1.771367438823309 -10.735002774364599" fill="#ff7c0b" stroke="none" /><path d="M 103.06178313531738 120.77559828337769 l 1.203465748535683 8.166065274505492 a29.25426870627453,29.25426870627453 0 0,0 -0.49881510521213046,0.06913122836881108 l -1.062722052136722 -8.185571068366906" fill="#ff5708" stroke="none" /><path d="M 102.34483914955558 120.86867818915974 l 0.9757985417357854 8.684444623331597 a29.739093843744143,29.739093843744143 0 0,0 -0.5092004167951137,0.05278070519570531 l -0.826165528335069 -8.699954696983061" fill="#ff5e08" stroke="none" /><path d="M 101.62511606390274 120.93702456842531 l 0.8750752703170956 11.273947037266531 a32.3078573800615,32.3078573800615 0 0,0 -0.5548293566996876,0.03826428086542302 l -0.6808831528384777 -11.287339662648238" fill="#ff820b" stroke="none" /><path d="M 100.90346689309514 120.98055641714683 l 0.6389800277685861 14.838569763305197 a35.85232130329675,35.85232130329675 0 0,0 -0.6167959062905914,0.02124369813663683 l -0.3834637698033424 -14.847370259867928" fill="#ffb110" stroke="none" /><line stroke="#e1ed5e" stroke-width="0.3" x1="102.19456741930631" x2="102.32365962044197" y1="184.97166512339345" y2="189.96999836594603" /><path d="M 102.22038585953345 185.97133177190398 a86.0,86.0 0 0,1 -42.740103519485714,-10.115201625700543" fill="none" id="id19" stroke="none" /><text fill="#e1ed5e" style="font-size:6.75px; font-family:Arial;" text-anchor="middle"><textPath startOffset="22.20632615414155" xlink:href="#id19">July</textPath></text><path d="M 99.81925306533755 120.99922214144158 l -0.09693907040327547 11.262404407493111 a32.262821592358236,32.262821592358236 0 0,0 -0.5552897257752137,-0.00955981620937464 l 0.29078848607115715 -11.259067114004576" fill="#ff810b" stroke="none" /><path d="M 99.09653310690486 120.98055641714683 l -0.4564831253216129 10.600576554028855 a31.610400563670048,31.610400563670048 0 0,0 -0.5434157983673268,-0.028088389659156443 l 0.6388869921024286 -10.591148357607496" fill="#ff780b" stroke="none" /><path d="M 96.93821686468263 120.77559828337769 l -1.063752550106686 7.218047352541959 a28.29601103832748,28.29601103832748 0 0,0 -0.48125334980133816,-0.07516187576394696 l 1.1878417635165412 -7.198667169430906" fill="#ff4a06" stroke="none" /><path d="M 96.22490169976321 120.6578951692458 l -1.2132206689128577 6.638922592821496 a27.748866392584244,27.748866392584244 0 0,0 -0.46913077277573845,-0.08991002914311755 l 1.3273190562602912 -6.617055365329911" fill="#ff4206" stroke="none" /><path d="M 94.11515582081647 120.15858648285463 l -2.596093626841616 8.892941988063857 a30.264130791520422,30.264130791520422 0 0,0 -0.49881776398851185,-0.1502897004252263 l 2.7487863652703735 -8.846936918532906" fill="#ff6509" stroke="none" /><line stroke="#e1ed5e" stroke-width="0.3" x1="58.666819895761336" x2="56.23545636021788" y1="174.27360380694188" y2="178.64263932499728" /><path d="M 58.180547188652646 175.14741091055294 a86.0,86.0 0 0,1 -31.652253787137756,-30.449443065178592" fill="none" id="id20" stroke="none" /><text fill="#e1ed5e" style="font-size:6.75px; font-family:Arial;" text-anchor="middle"><textPath startOffset="22.20632615414155" xlink:href="#id20">August</textPath></text><path d="M 88.24862548938628 117.40417183066458 l -5.50960025519066 8.1598990375981 a30.84579337970239,30.84579337970239 0 0,0 -0.4374860569756755,-0.30090689919871527 l 5.649243196789227 -8.063851349034284" fill="#ff6e0a" stroke="none" /><path d="M 85.44109423537348 115.13401014063109 l -6.7742083771354835 7.041802449426491 a30.771227193838115,30.771227193838115 0 0,0 -0.3785594290944444,-0.3705000775670568 l 6.894417758605722 -6.924152268936864" fill="#ff6c0a" stroke="none" /><path d="M 84.67929136418377 114.36230785411682 l -6.656399688642125 6.2400025874020075 a30.12388563637986,30.12388563637986 0 0,0 -0.35137876151224345,-0.3813522474733047 l 6.762824858150098 -6.124499085127359" fill="#ff6309" stroke="none" /><path d="M 83.95833913139862 113.55231037782056 l -7.070638826610621 5.973414644069247 a30.25611235489039,30.25611235489039 0 0,0 -0.33267892240070407,-0.4007331930959054 l 7.172413748904861 -5.8508201938595805" fill="#ff6509" stroke="none" /><path d="M 82.85270091963577 112.12312394758628 l -3.6779504426288807 2.6003074233497676 a25.504322163695875,25.504322163695875 0 0,0 -0.25035418258423575,-0.3606538723098537 l 3.7221655323752505 -2.5366122888529015" fill="#ff2103" stroke="none" /><path d="M 82.6465618267979 111.8261652097733 l -7.8457480971883715 5.346785591739209 a30.49441306077237,30.49441306077237 0 0,0 -0.29187058702560525,-0.4363069260819993 l 7.9366217896247075 -5.210941751451389" fill="#ff6909" stroke="none" /><path d="M 82.24976979558568 111.22182372390057 l -8.828590355529153 5.581498581107881 a31.444957351595633,31.444957351595633 0 0,0 -0.28530363236247774,-0.46000029802252307 l 8.923358627559587 -5.428701951720093" fill="#ff760a" stroke="none" /><line stroke="#e1ed5e" stroke-width="0.3" x1="26.63291911575756" x2="22.317208475507996" y1="142.92168965132927" y2="145.44649492493687" /><path d="M 25.769776987707644 143.4266507060508 a86.0,86.0 0 0,1 -11.730757126820373,-40.83630448921669" fill="none" id="id21" stroke="none" /><text fill="#e1ed5e" style="font-size:6.75px; font-family:Arial;" text-anchor="middle"><textPath startOffset="21.46611528233685" xlink:href="#id21">September</textPath></text><path d="M 81.69416730710424 110.29060199501025 l -8.386860409722598 4.714663567184133 a30.621199513777153,30.621199513777153 0 0,0 -0.2543361698140232,-0.4616940251468623 l 8.466772988988138 -4.569599023639448" fill="#ff6a09" stroke="none" /><path d="M 79.18660465613746 102.79330883721812 l -10.598487296826676 1.422393979370591 a31.693509134682877,31.693509134682877 0 0,0 -0.06791238465390295,-0.5413285252828849 l 10.621401190727427 -1.2397476998002974" fill="#ff790b" stroke="none" /><path d="M 79.07016306316243 101.71520430193888 l -9.462106429915238 0.775421504857953 a30.493826236098883,30.493826236098883 0 0,0 -0.038369134697595744,-0.5235163585292153 l 9.47405212327717 -0.6124320098319771" fill="#ff6909" stroke="none" /><line stroke="#e1ed5e" stroke-width="0.3" x1="15.007084014347285" x2="10.007500721073583" y1="101.09737516637583" y2="101.16192664675087" /><path d="M 14.007167355692545 101.11028546245083 a86.0,86.0 0 0,1 10.666146001902534,-42.60595125391555" fill="none" id="id22" stroke="none" /><text fill="#e1ed5e" style="font-size:6.75px; font-family:Arial;" text-anchor="middle"><textPath startOffset="22.20632615414155" xlink:href="#id22">October</textPath></text><path d="M 79.00175016825051 100.2711162175752 l -9.357508032608253 0.12081826838227357 a30.3582879649166,30.3582879649166 0 0,0 -0.002248974803479467,-0.5225825408228945 l 9.358201304701234 0.04027375064429624" fill="#ff6709" stroke="none" /><path d="M 79.00486145842228 99.54816195383935 l -10.501895540632498 -0.2260121290776694 a31.504327271598452,31.504327271598452 0 0,0 0.016334701966786564,-0.542069234691495 l 10.496449144210066 0.4067515111941589" fill="#ff770a" stroke="none" /><path d="M 79.03285615573316 98.82574320788736 l -8.613503909313637 -0.4823959593412149 a29.627001533403714,29.627001533403714 0 0,0 0.03289924600334853,-0.5089367741208338 l 8.603924072305876 0.6305917977150605" fill="#ff5c08" stroke="none" /><path d="M 79.05617556472873 98.46500227214037 l -10.526364510933723 -0.771489737074673 a31.554598345340125,31.554598345340125 0 0,0 0.04436503828641002,-0.5413658396154529 l 10.511524988827816 0.9525694938979044" fill="#ff770b" stroke="none" /><path d="M 79.12142395522702 97.74499172005258 l -9.494499726402317 -1.025461480279249 a30.549717079693522,30.549717079693522 0 0,0 0.060967993269056484,-0.5223365338032323 l 9.475441380129672 1.188741752407343" fill="#ff6909" stroke="none" /><path d="M 79.16333360222342 97.38593545837743 l -10.379923922960087 -1.302213634069848 a31.461289643021864,31.461289643021864 0 0,0 0.07203736575413452,-0.5367620482898016 l 10.355970558148119 1.480694024424309" fill="#ff760a" stroke="none" /><path d="M 79.21141760316559 97.0276538004421 l -6.561949288507902 -0.9382258326742945 a27.628683593146285,27.628683593146285 0 0,0 0.07136634556944903,-0.47021504950612025 l 6.544827049499151 1.0510399945725069" fill="#ff4006" stroke="none" /><path d="M 79.26566170972629 96.67025291283419 l -13.13864573869086 -2.109947603113591 a34.30698653845807,34.30698653845807 0 0,0 0.09865405018610716,-0.5822617886840017 l 13.100379826984529 2.3357951801134207" fill="#ff9d0e" stroke="none" /><path d="M 79.46518482838121 95.60439243477599 l -14.070165274535729 -3.011808209999383 a35.38890334759987,35.38890334759987 0 0,0 0.1326335872046901,-0.594570364605703 l 14.016237300329001 3.2535567441550453" fill="#ffab0f" stroke="none" /><path d="M 79.71946130924805 94.55025226153421 l -15.438297460487288 -4.148549895739145 a36.985978065665094,36.985978065665094 0 0,0 0.17051104668089442,-0.613418956774575 l 15.364599643240032 4.413680155932663" fill="#ffc011" stroke="none" /><path d="M 79.81627453868168 94.20196356495316 l -14.08023520946875 -4.0447298450915925 a35.64967109097464,35.64967109097464 0 0,0 0.17450361705045017,-0.5883394462992025 l 14.008525695306593 4.286498678137335" fill="#ffaf10" stroke="none" /><path d="M 79.91906864156998 93.8553929516997 l -8.09061541970739 -2.4756646813670455 a29.460908549569318,29.460908549569318 0 0,0 0.15255772609390966,-0.48364968187574503 l 8.046802209845277 2.614564529669205" fill="#ff5a08" stroke="none" /><path d="M 80.14247586403 93.16781622104843 l -10.04163095069376 -3.454925580136864 a31.619362641619077,31.619362641619077 0 0,0 0.18150555967640866,-0.5131406590067392 l 9.980672310207542 3.6272638655702143" fill="#ff780b" stroke="none" /><path d="M 80.52162464483688 92.15188598940014 l -8.956695944058005 -3.608779974999913 a30.656381058257047,30.656381058257047 0 0,0 0.20142455926629363,-0.48776554711605274 l 8.893249697905512 3.762420092569277" fill="#ff6b09" stroke="none" /><path d="M 80.65960295795068 91.81776055985345 l -2.0646256684007995 -0.873470256913501 a23.241791569332882,23.241791569332882 0 0,0 0.1590505413530093,-0.3671105783279849 l 2.0492844172051097 0.9088799798280852" fill="#ff0000" stroke="none" /><path d="M 81.43458229118936 90.18545643968196 l -11.705635332592989 -6.188143443624776 a34.24065775626444,34.24065775626444 0 0,0 0.2799449340087056,-0.5186954464510565 l 11.597382299365812 6.388719873408306" fill="#ff9c0e" stroke="none" /><path d="M 81.6062741919709 89.86733742301443 l -9.527073301395045 -5.248236279955053 a31.87699911466351,31.87699911466351 0 0,0 0.2688936576995521,-0.4783318130868926 l 9.435322002403062 5.41145160297673" fill="#ff7c0b" stroke="none" /><line stroke="#e1ed5e" stroke-width="0.3" x1="26.266209847984243" x2="21.928928074336255" y1="57.711370442889674" y2="55.22380399835377" /><path d="M 25.398753493254645 57.213857153982495 a86.0,86.0 0 0,1 29.58750427330803,-30.492523968695096" fill="none" id="id23" stroke="none" /><text fill="#e1ed5e" style="font-size:6.75px; font-family:Arial;" text-anchor="middle"><textPath startOffset="21.46611528233685" xlink:href="#id23">November</textPath></text><path d="M 81.96595687620814 89.24020034530311 l -27.587177461415244 -16.459564862179683 a53.12428420587636,53.12428420587636 0 0,0 0.47529589188748633,-0.7812614756229066 l 27.299765771241542 16.93199411100966" fill="#7dff26" stroke="none" /><path d="M 82.34701348167596 88.62581576622439 l -9.994290602010869 -6.4395280920407165 a32.88921219785501,32.88921219785501 0 0,0 0.3107300171657983,-0.4732631341046265 l 9.881963949487151 6.61060929012301" fill="#ff8a0c" stroke="none" /><path d="M 82.7489923806493 88.02491185347247 l -8.678172945794383 -6.024105273719053 a31.564115203175668,31.564115203175668 0 0,0 0.31366821475996703,-0.44366144516438266 l 8.573192111230538 6.172593219215222" fill="#ff770b" stroke="none" /><path d="M 84.80347519578584 85.50635884689758 l -7.686404301683628 -7.330885655868618 a31.62180284077806,31.62180284077806 0 0,0 0.37906370576943277,-0.39065846943584004 l 7.5590763322110766 7.462108320854583" fill="#ff780b" stroke="none" /><path d="M 85.57189188830299 84.74124197986013 l -9.3515556999916 -9.889940138606855 a34.6111171457479,34.6111171457479 0 0,0 0.43641671205936783,-0.4056017714476997 l 9.179931104137376 10.049446496129203" fill="#ffa10e" stroke="none" /><path d="M 86.10567301691215 84.25364557470407 l -7.417598248806526 -8.406317999593 a32.211018958639706,32.211018958639706 0 0,0 0.4189061442624215,-0.36327128033467754 l 7.271798305897331 8.532754273347358" fill="#ff800b" stroke="none" /><path d="M 87.51073957382395 83.11751280151077 l -2.0250981153108847 -2.7374473620363573 a24.40509037127585,24.40509037127585 0 0,0 0.3398753801851832,-0.24693391792652686 l 1.9776774187719195 2.7719005147795523" fill="#ff1101" stroke="none" /><path d="M 88.09926311788651 82.69761687909137 l -1.273483713494848 -1.8515074593609668 a23.247185048144885,23.247185048144885 0 0,0 0.33165464327079486,-0.22393469561087076 l 1.2414243758175136 1.873154067270503" fill="#ff0000" stroke="none" /><line stroke="#e1ed5e" stroke-width="0.3" x1="56.762969772571076" x2="54.21961505331055" y1="26.818313649435495" y2="22.513508569990535" /><path d="M 56.25429882871897 25.957352633546506 a86.0,86.0 0 0,1 42.265352541879196,-11.944610805530505" fill="none" id="id24" stroke="none" /><text fill="#e1ed5e" style="font-size:6.75px; font-family:Arial;" text-anchor="middle"><textPath startOffset="22.20632615414155" xlink:href="#id24">December</textPath></text><path d="M 89.63071344664047 81.73862282372117 l -5.566051624039614 -9.80238780808843 a32.27243263105328,32.27243263105328 0 0,0 0.4854325740569045,-0.2701427018959727 l 5.396494960910664 9.896745907544588" fill="#ff810b" stroke="none" /><path d="M 90.58718382345135 81.22770947309562 l -3.95076320503672 -7.879137688116097 a29.814155694708568,29.814155694708568 0 0,0 0.46074048441703164,-0.22608335472948202 l 3.814551453609262 7.9459762029804075" fill="#ff5f08" stroke="none" /><path d="M 90.91171255644093 81.06846463323043 l -2.0102270771762325 -4.187442930600824 a25.64496406862866,25.64496406862866 0 0,0 0.3995995720806638,-0.1876173571371498 l 1.93784929379596 4.221425270377981" fill="#ff2303" stroke="none" /><path d="M 91.23893434514133 80.91482961587045 l -5.32250334401686 -11.594580749925871 a33.75787382809621,33.75787382809621 0 0,0 0.5301881157642196,-0.23787995293078074 l 5.122133109785866 11.68448103337318" fill="#ff950d" stroke="none" /><path d="M 92.91201910852362 80.23233633223022 l -4.3121977539926295 -12.026284519523188 a33.77601537311466,33.77601537311466 0 0,0 0.5489696132323411,-0.19152471875584853 l 4.104546136697003 12.098730091451245" fill="#ff960d" stroke="none" /><path d="M 93.94186890950719 79.89281104454417 l -3.3070172494097982 -10.976127739656665 a32.46349611790201,32.46349611790201 0 0,0 0.5364357485623683,-0.15660030504213365 l 3.1175912831240087 11.031426373617498" fill="#ff840c" stroke="none" /><path d="M 94.28887869178378 79.79150937346287 l -2.4828864922007905 -8.785558158642358 a30.129663602348142,30.129663602348142 0 0,0 0.5002989188151418,-0.13675059341332602 l 2.331289684161926 8.82699529288198" fill="#ff6409" stroke="none" /><path d="M 94.63758080256005 79.69619591428918 l -1.4699275357519799 -5.565607537797143 a26.756446319140505,26.756446319140505 0 0,0 0.4463116817129469,-0.11377478521275695 l 1.3739069653540337 5.590085319178764" fill="#ff3404" stroke="none" /><path d="M 95.33964822691252 79.52364482259891 l -3.026203017824568 -13.296337025401554 a34.636366194780585,34.636366194780585 0 0,0 0.582480225265228,-0.12730761644026845 l 2.7968800684058186 13.34645813993769" fill="#ffa10e" stroke="none" /><path d="M 96.40284397218896 79.31037775812273 l -2.1537917748545574 -12.387880276775158 a33.57371849379276,33.57371849379276 0 0,0 0.57022689657384,-0.09409232382726959 l 1.9402356721418317 12.423118863542054" fill="#ff930d" stroke="none" /><path d="M 97.11714578562143 79.19881850522333 l -1.214141899943477 -8.760618520066709 a29.84435285407215,29.84435285407215 0 0,0 0.5094648064475878,-0.06614315361474764 l 1.0631623649880313 8.780219996845593" fill="#ff6008" stroke="none" /><path d="M 97.83486435360386 79.11191278185805 l -0.8503130831146517 -8.203372325604539 a29.24732379937943,29.24732379937943 0 0,0 0.5012084254882085,-0.04759577929676157 l 0.7089795305362069 8.21679364941648" fill="#ff5708" stroke="none" /><path d="M 98.91598698831166 79.02799685794201 l -0.40926584473635264 -7.917916564838727 a28.928486694156412,28.928486694156412 0 0,0 0.4975137226046687,-0.02142398744327528 l 0.2729112897423598 7.923788278806194" fill="#ff5307" stroke="none" /></svg>