<?xml version="1.0" encoding="utf-8" ?>
<svg baseProfile="full" height="200mm" version="1.1" viewBox="0,0,200,200" width="200mm" xmlns="http://www.w3.org/2000/svg" xmlns:ev="http://www.w3.org/2001/xml-events" xmlns:xlink="http://www.w3.org/1999/xlink"><defs /><rect fill="#1a1a1a" height="200" width="200" x="0" y="0" /><text alignment-baseline="middle" fill="#e1ed5e" style="dominant-baseline: central; font-size:9.0px; font-family:Arial;" text-anchor="middle" x="100.0" y="100.0">2020</text><line stroke="#e1ed5e" stroke-width="0.3" x1="100.0" x2="100.0" y1="15.0" y2="10.0" /><path d="M 100.0 14.0 a86.0,86.0 0 0,1 42.35913384403234,11.155469271406648" fill="none" id="id1" stroke="none" /><text fill="#e1ed5e" style="font-size:6.75px; font-family:Arial;" text-anchor="middle"><textPath startOffset="22.145653131862478" xlink:href="#id1">January</textPath></text><line stroke="#e1ed5e" stroke-width="0.3" x1="143.13028292997686" x2="145.6673583964461" y1="26.7553504044142" y2="22.446841604673864" /><path d="M 143.63769802327073 25.89364864446614 a86.0,86.0 0 0,1 29.32050498858742,28.57503671076993" fill="none" id="id2" stroke="none" /><text fill="#e1ed5e" style="font-size:6.75px; font-family:Arial;" text-anchor="middle"><textPath startOffset="20.669276256404974" xlink:href="#id2">February</textPath></text><line stroke="#e1ed5e" stroke-width="0.3" x1="172.87174338648825" x2="177.1583165268699" y1="56.24261187166439" y2="53.66864786411523" /><path d="M 173.72905801456457 55.72781907015455 a86.0,86.0 0 0,1 12.242430191666344,42.057860355516425" fill="none" id="id3" stroke="none" /><text fill="#e1ed5e" style="font-size:6.75px; font-family:Arial;" text-anchor="middle"><textPath startOffset="22.145653131862474" xlink:href="#id3">March</textPath></text><line stroke="#e1ed5e" stroke-width="0.3" x1="184.99686870605535" x2="189.99668451229388" y1="99.2704041080226" y2="99.22748670261217" /><path d="M 185.99683186730306 99.26182062694052 a86.0,86.0 0 0,1 -10.086455211305974,41.156179273409016" fill="none" id="id4" stroke="none" /><text fill="#e1ed5e" style="font-size:6.75px; font-family:Arial;" text-anchor="middle"><textPath startOffset="21.40746469413373" xlink:href="#id4">April</textPath></text><path d="M 120.51834098615036 104.47187691870673 l 13.086286520156639 2.8520952391117733 a34.39348133013211,34.39348133013211 0 0,0 -0.1306774401601813,0.5757889129516134 l -13.035398218438795 -3.0763184860024038" fill="#ff6209" stroke="none" /><path d="M 120.26092885502905 105.52220625578681 l 12.186755847785125 3.3215544984099368 a33.631300106459044,33.631300106459044 0 0,0 -0.1565961541858054,0.5557045069419617 l -12.127941201524742 -3.530266929254907" fill="#ff5608" stroke="none" /><path d="M 119.4528033332814 107.91128576633889 l 11.970313481202355 4.868222283439706 a33.922383411709845,33.922383411709845 0 0,0 -0.2240075176632569,0.5375364953183576 l -11.884980119002613 -5.072991288199341" fill="#ff5b08" stroke="none" /><path d="M 119.0197475246899 108.90220220490707 l 11.55223491044428 5.407029244623911 a33.75500280981176,33.75500280981176 0 0,0 -0.2501418373727696,0.5227002336432421 l -11.4577138151116 -5.604541980332257" fill="#ff5808" stroke="none" /><line stroke="#e1ed5e" stroke-width="0.3" x1="174.33088141563837" x2="178.70328620479359" y1="141.23008692659167" y2="143.65538615756765" /><path d="M 175.20536237346943 141.71514677278685 a86.0,86.0 0 0,1 -30.301960400862466,31.631185727798858" fill="none" id="id5" stroke="none" /><text fill="#e1ed5e" style="font-size:6.75px; font-family:Arial;" text-anchor="middle"><textPath startOffset="22.145653131862474" xlink:href="#id5">May</textPath></text><path d="M 117.423217284605 111.72311816256416 l 16.269245154469694 10.946674213269244 a40.609130889146755,40.609130889146755 0 0,0 -0.39412179305800493,0.5750354745441135 l -16.078933624596367 -11.224344422883402" fill="#ffbd11" stroke="none" /><path d="M 117.01052211995028 112.31430620078461 l 14.952837703639501 10.8247013674729 a39.45972684213807,39.45972684213807 0 0,0 -0.40192170853843534,0.5452839889315235 l -14.764813975517239 -11.0797916656733" fill="#ffad10" stroke="none" /><path d="M 116.79662413953412 112.60449989151573 l 10.276077070008238 7.711359808859709 a33.84767800228687,33.84767800228687 0 0,0 -0.35273797152136616,0.4617453277624757 l -10.142187121132567 -7.886626049863062" fill="#ff5908" stroke="none" /><path d="M 116.35404254752997 113.17365903436017 l 11.210957930147437 9.030754126454488 a35.39583612729773,35.39583612729773 0 0,0 -0.38523004440962827,0.4699180166506981 l -11.05428106649918 -9.221874424803678" fill="#ff710a" stroke="none" /><path d="M 115.89218393027572 113.72728997021213 l 13.616758597203887 11.761831761970656 a38.99324320658807,38.99324320658807 0 0,0 -0.4419028792161908,0.5028043575553452 l -13.41284465402911 -11.993848397337294" fill="#ffa60f" stroke="none" /><path d="M 114.91283532996324 114.78537596483092 l 13.418348454911953 13.303662405120264 a39.89548910843136,39.89548910843136 0 0,0 -0.4863603601012102,0.48220345892498023 l -13.187996174680778 -13.532045874273905" fill="#ffb310" stroke="none" /><path d="M 114.39649973595853 115.28858382429668 l 12.834364685004253 13.629650534301643 a39.72133249944761,39.72133249944761 0 0,0 -0.5004324772901333,0.4631928299566615 l -12.598502436400153 -13.847961110390683" fill="#ffb110" stroke="none" /><path d="M 113.86319453409587 115.77377054828091 l 12.534206297242601 14.261625893747645 a39.98684546297908,39.98684546297908 0 0,0 -0.5194872372310596,0.4487207027417907 l -12.287539580248685 -14.474690728954153" fill="#ffb510" stroke="none" /><path d="M 113.03279911837588 116.46651593811092 l 11.619094510640057 14.680346348322626 a39.722070562678034,39.722070562678034 0 0,0 -0.5383098219350388,0.418592973474538 l -11.365374744069788 -14.877640373417957" fill="#ffb110" stroke="none" /><path d="M 111.8722381534696 117.32195027204791 l 10.470546715095649 15.27684057340418 a39.52064271072169,39.52064271072169 0 0,0 -0.5628938538842364,0.3787401060478475 l -10.20675657311441 -15.454330353509148" fill="#ffae10" stroke="none" /><line stroke="#e1ed5e" stroke-width="0.3" x1="143.1302829299769" x2="145.66735839644613" y1="173.24464959558577" y2="177.55315839532614" /><path d="M 143.63769802327073 174.10635135553383 a86.0,86.0 0 0,1 -40.68552437913181,11.842963189579606" fill="none" id="id6" stroke="none" /><text fill="#e1ed5e" style="font-size:6.75px; font-family:Arial;" text-anchor="middle"><textPath startOffset="21.407464694133747" xlink:href="#id6">June</textPath></text><path d="M 110.34350942703117 118.27599006163325 l 8.915631668382995 15.753066878706239 a39.10103875834935,39.10103875834935 0 0,0 -0.5869918913192115,0.3255945072003905 l -8.64389558890769 -15.903794301339774" fill="#ffa80f" stroke="none" /><path d="M 109.71004243097381 118.62028667847754 l 16.574485535932975 31.783761442986833 a56.84579560067746,56.84579560067746 0 0,0 -0.8691255965433967,0.44378172236011126 l -16.026432717675995 -32.06360111701978" fill="#6fff28" stroke="none" /><path d="M 109.06512990194946 118.94263497670748 l 13.405045339063035 28.01138907556945 a52.053714085198685,52.053714085198685 0 0,0 -0.8093392920820531,0.3788116546309552 l -12.922217333109476 -28.237376961770938" fill="#a8ff21" stroke="none" /><path d="M 108.73861861582097 119.09545874513695 l 12.800258631476103 27.97087518866069 a51.76063198070405,51.76063198070405 0 0,0 -0.8111300116462907,0.3628081370521563 l -12.318215216974187 -28.186487076622694" fill="#acff21" stroke="none" /><path d="M 108.07796709384702 119.3841803445677 l 13.941923163833865 33.455540214283936 a57.24431531338145,57.24431531338145 0 0,0 -0.9103087486243555,0.37021464323573433 l -13.36555995401907 -33.68994211409896" fill="#6aff28" stroke="none" /><path d="M 107.407793817531 119.65005319985036 l 12.631586472187564 33.506783840229 a56.80867967574598,56.80867967574598 0 0,0 -0.915460642022769,0.3361698282019252 l -12.054536678510669 -33.71868451743965" fill="#6fff27" stroke="none" /><path d="M 107.06938296918513 119.77432235084164 l 6.806474725439416 19.038921201521745 a41.21901626454165,41.21901626454165 0 0,0 -0.6683255771456571,0.23247832830252746 l -6.478643376248737 -19.152957962392865" fill="#ffc612" stroke="none" /><path d="M 106.72888874123015 119.89276391827305 l 9.80621860459588 28.99034285363151 a51.60395239331394,51.60395239331394 0 0,0 -0.8415800162961339,0.27664406725968327 l -9.307115850652012 -29.154407842293214" fill="#aeff20" stroke="none" /><path d="M 106.0420521117495 120.11202640906438 l 8.824695949896276 29.374542740394638 a51.67146914993455,51.67146914993455 0 0,0 -0.8516934138944063,0.2479155400718477 l -8.319142523620263 -29.521701974769" fill="#adff20" stroke="none" /><path d="M 105.69591212413111 120.21278271476187 l 8.422255266168328 29.887612721779547 a52.05163084244656,52.05163084244656 0 0,0 -0.8621202532706752,0.23497470870740328 l -7.907953611962957 -30.02778792463109" fill="#a8ff21" stroke="none" /><path d="M 104.9986988182912 120.39639698878246 l 7.405935875502575 30.218745653864865 a52.11302741754702,52.11302741754702 0 0,0 -0.8707040805756834,0.2054837922115664 l -6.886099641187013 -30.341425589722657" fill="#a7ff21" stroke="none" /><path d="M 103.58742460773223 120.69131181640829 l 5.288525469376618 30.50280953641055 a51.957872847706824,51.957872847706824 0 0,0 -0.8801230602589166,0.1448239146394963 l -4.764124906064629 -30.589099449545717" fill="#a9ff21" stroke="none" /><path d="M 102.51750503828377 120.84855314841334 l 3.7989921767929826 31.46110498442919 a52.68964292005528,52.68964292005528 0 0,0 -0.8988955912252111,0.10072312591356603 l -3.258360683966972 -31.521683870849728" fill="#a0ff22" stroke="none" /><path d="M 102.15924093988457 120.88869738790638 l 3.181255902841501 30.775765057279607 a51.93974957849912,51.93974957849912 0 0,0 -0.887676133399824,0.08406385274636 l -2.6524802060566612 -30.82584066553115" fill="#aaff21" stroke="none" /><path d="M 101.08105385017728 120.97215588758144 l 0.8658342421558285 16.79695298834576 a37.81925380709819,37.81925380709819 0 0,0 -0.6486438559340844,0.02785555811654403 l -0.5773646256209145 -16.809341114888134" fill="#ff950d" stroke="none" /><path d="M 100.72087961077811 120.9876233191556 l 0.9831612623863611 28.623667431345538 a49.64054718904875,49.64054718904875 0 0,0 -0.8518948709131492,0.021941789995579743 l -0.49165307740246816 -28.636326938691163" fill="#c7ff1e" stroke="none" /><line stroke="#e1ed5e" stroke-width="0.3" x1="101.45913802915013" x2="101.54496967792366" y1="184.9874750549273" y2="189.98673829345242" /><path d="M 101.47630435890484 185.9873277026323 a86.0,86.0 0 0,1 -42.54439059252881,-10.42667462771756" fill="none" id="id7" stroke="none" /><text fill="#e1ed5e" style="font-size:6.75px; font-family:Arial;" text-anchor="middle"><textPath startOffset="22.145653131862474" xlink:href="#id7">July</textPath></text><path d="M 97.12497278360702 120.80226474461374 l -3.835914166734686 27.754764051987458 a49.01858606489719,49.01858606489719 0 0,0 -0.8325570956170387,-0.12235722237753666 l 4.31179636795941 -27.68482575631104" fill="#cfff1d" stroke="none" /><path d="M 95.00130118170881 120.39639698878247 l -6.739760031912981 27.500520878955363 a49.314360559645905,49.314360559645905 0 0,0 -0.8204845975007348,-0.2085639762046286 l 7.2108499226390945 -27.380771670915472" fill="#cbff1d" stroke="none" /><path d="M 94.30408787586889 120.21278271476187 l -9.715622182961054 34.47731563324794 a56.82008665088134,56.82008665088134 0 0,0 -0.9365573376100998,-0.2726181914454159 l 10.30603953295276 -34.30545374750001" fill="#6fff28" stroke="none" /><path d="M 93.61358852112213 120.00534299687104 l -9.20643957488761 28.839040842378544 a51.27290548253396,51.27290548253396 0 0,0 -0.8361811572621062,-0.2748693550602338 l 9.700143469797458 -28.67675056591629" fill="#b2ff20" stroke="none" /><path d="M 92.25597844496254 119.51999308798841 l -11.122662042328018 28.03637420728017 a51.16209358778812,51.16209358778812 0 0,0 -0.8135882337999522,-0.3308792518716454 l 11.602304737318413 -27.841307698829233" fill="#b3ff20" stroke="none" /><line stroke="#e1ed5e" stroke-width="0.3" x1="58.13341422392154" x2="55.67067388415222" y1="173.97424548756322" y2="178.32567169271397" /><path d="M 57.64086615596768 174.84453072859336 a86.0,86.0 0 0,1 -31.369924170532247,-30.572349798747897" fill="none" id="id8" stroke="none" /><text fill="#e1ed5e" style="font-size:6.75px; font-family:Arial;" text-anchor="middle"><textPath startOffset="22.145653131862474" xlink:href="#id8">August</textPath></text><path d="M 85.86807049272751 115.53346607816431 l -20.64690616648733 22.69456668256987 a51.68123353382883,51.68123353382883 0 0,0 -0.6511102749914932,-0.6026579500201414 l 21.03344621279279 -22.336790986417352" fill="#adff20" stroke="none" /><path d="M 85.34317274990678 115.03919595460226 l -21.18338735496053 21.73602158075986 a51.35112080285603,51.35112080285603 0 0,0 -0.6260143731387385,-0.6206638550917996 l 21.553393648229232 -21.3691777154394" fill="#b1ff20" stroke="none" /><line stroke="#e1ed5e" stroke-width="0.3" x1="26.387840678322732" x2="22.057713659400548" y1="142.50000000000003" y2="145.00000000000006" /><path d="M 25.521815274538298 143.00000000000003 a86.0,86.0 0 0,1 -11.493303480769221,-40.785679425670985" fill="none" id="id9" stroke="none" /><text fill="#e1ed5e" style="font-size:6.75px; font-family:Arial;" text-anchor="middle"><textPath startOffset="21.40746469413373" xlink:href="#id9">September</textPath></text><line stroke="#e1ed5e" stroke-width="0.3" x1="15.003131293944662" x2="10.003315487706104" y1="100.72959589197737" y2="100.7725132973878" /><path d="M 14.003168132696942 100.73817937305945 a86.0,86.0 0 0,1 10.791469493833604,-42.45332614584628" fill="none" id="id10" stroke="none" /><text fill="#e1ed5e" style="font-size:6.75px; font-family:Arial;" text-anchor="middle"><textPath startOffset="22.145653131862435" xlink:href="#id10">October</textPath></text><path d="M 79.06263194458094 98.37931529534042 l -29.75701365005676 -2.3033810530216736 a50.846028641095344,50.846028641095344 0 0,0 0.0748317402620501,-0.8696582529721318 l 29.713088287096966 2.813860353369486" fill="#b7ff1f" stroke="none" /><path d="M 79.22317932658666 96.9465228501225 l -30.460023635737958 -4.476574525931739 a51.78721746725313,51.78721746725313 0 0,0 0.13681321673305963,-0.8784389946057908 l 30.378688926866634 4.99880170246898" fill="#abff21" stroke="none" /><path d="M 79.407916724674 95.88100663000787 l -29.976070253097426 -5.996053579429395 a51.56987808850438,51.56987808850438 0 0,0 0.1810895648930781,-0.8665791231738215 l 29.868722977379978 6.509749153888626" fill="#aeff20" stroke="none" /><path d="M 79.48165901384962 95.52812308129327 l -29.437694740853075 -6.415808555887229 a51.128731654044856,51.128731654044856 0 0,0 0.1942627356345594,-0.8559574570860949 l 29.323221143660852 6.920200346912332" fill="#b4ff20" stroke="none" /><path d="M 80.05021161711548 93.44210830539832 l -58.466816205273545 -19.219203785204677 a82.54466988552674,82.54466988552674 0 0,0 0.45405298777499625,-1.342326978428118 l 58.12827779592618 20.220032438106955" fill="#4be1ff" stroke="none" /><path d="M 80.28708602549916 92.7611449362534 l -19.578229921265795 -7.189397213830171 a41.85652222083481,41.85652222083481 0 0,0 0.2534697766061633,-0.6723586964688665 l 19.451929460845196 7.524424190493182" fill="#ffcf13" stroke="none" /><path d="M 80.41425534168474 92.42381321644754 l -34.41140310837385 -13.31106996345287 a57.896195568905725,57.896195568905725 0 0,0 0.3665141406357294,-0.9238550591592277 l 34.177830292771986 13.89982603982568" fill="#62ff29" stroke="none" /><path d="M 80.68587082218212 91.75594674310238 l -34.272350264619 -14.62882836804604 a58.263878113831346,58.263878113831346 0 0,0 0.4005395191395157,-0.9165128049025818 l 34.01617686346251 15.215003242724489" fill="#5eff29" stroke="none" /><path d="M 80.9802524753101 91.09779779509293 l -27.9648522037657 -13.088962859527877 a51.876429643282265,51.876429643282265 0 0,0 0.38443087978468415,-0.803312683690262 l 27.736042066021113 13.567088045283226" fill="#aaff21" stroke="none" /><path d="M 81.29705330413844 90.45014215332179 l -6.396027083035724 -3.2658570020953253 a28.181572557947288,28.181572557947288 0 0,0 0.22369717852414644,-0.42896883539863595 l 6.339021835536638 3.375172080598448" fill="#ff0000" stroke="none" /><path d="M 81.63589988554816 89.8137432299009 l -27.398308215090154 -15.197379713999378 a52.330937477524614,52.330937477524614 0 0,0 0.4424870701505321,-0.7818322546638264 l 27.133387779918255 15.66546873876231" fill="#a5ff21" stroke="none" /><line stroke="#e1ed5e" stroke-width="0.3" x1="26.387840678322718" x2="22.05771365940052" y1="57.49999999999999" y2="54.99999999999999" /><path d="M 25.521815274538284 56.99999999999999 a86.0,86.0 0 0,1 29.574782752854787,-30.34633250058573" fill="none" id="id11" stroke="none" /><text fill="#e1ed5e" style="font-size:6.75px; font-family:Arial;" text-anchor="middle"><textPath startOffset="21.40746469413373" xlink:href="#id11">November</textPath></text><path d="M 82.18462484594161 88.88188828441811 l -31.456566466388846 -19.631223992623422 a58.07965114861375,58.07965114861375 0 0,0 0.535113570180801,-0.8412874123257841 l 31.114935204582157 20.168325079627877" fill="#60ff29" stroke="none" /><path d="M 82.98947788004972 87.6856937992154 l -32.49265740403542 -23.522178198234652 a61.11316058808534,61.11316058808534 0 0,0 0.6224753155543438,-0.8445073153952918 l 32.08408006889726 24.07649182289881" fill="#3eff2d" stroke="none" /><path d="M 83.64595745247003 86.82634096563983 l -29.277754189304588 -23.584086311427747 a58.59515949579435,58.59515949579435 0 0,0 0.6377195276182666,-0.7779141319495406 l 28.868587842447692 24.08320272507578" fill="#5aff2a" stroke="none" /><path d="M 84.58840730492382 85.73525988315684 l -31.295998488557327 -28.967108978880265 a63.6442601529222,63.6442601529222 0 0,0 0.749014648236466,-0.7954276001260802 l 30.79412800658459 29.500078038950857" fill="#31ff3f" stroke="none" /><path d="M 84.83555147118756 85.47280134310135 l -13.34312902162917 -12.782415768931127 a39.47780411676836,39.47780411676836 0 0,0 0.47300650368390984,-0.4853463423783204 l 13.121735716794458 13.009584803377178" fill="#ffad10" stroke="none" /><path d="M 85.34317274990677 84.96080404539775 l -21.91065877471988 -22.48226612654805 a52.393140303689584,52.393140303689584 0 0,0 0.6494940939509547,-0.6222006498542193 l 21.521492194903626 22.855078906707842" fill="#a4ff21" stroke="none" /><path d="M 85.60350026404147 84.71141617570332 l -10.72701725039773 -11.391720586619583 a36.647370290689196,36.647370290689196 0 0,0 0.4617049113595179,-0.42734717310027404 l 10.52988256772426 11.574185505852222" fill="#ff840c" stroke="none" /><path d="M 86.40962598614128 83.9905735841838 l -28.456120667518213 -33.52123859443882 a64.97072026189305,64.97072026189305 0 0,0 0.8564553760228044,-0.7144855355692203 l 27.876490957333502 34.00478631391992" fill="#33ff50" stroke="none" /><path d="M 87.54013794807813 83.09580414077388 l -19.078125927796155 -25.883141881229893 a53.15450081342773,53.15450081342773 0 0,0 0.7391487438863461,-0.5350866890479832 l 18.630996173535838 26.206829341650955" fill="#9bff22" stroke="none" /><path d="M 87.83215693770416 82.88440491214696 l -35.5360911923677 -49.98596256868769 a82.33033695611431,82.33033695611431 0 0,0 1.1589167499783497,-0.8090138974954739 l 34.67277935121559 50.58862128198829" fill="#4be3ff" stroke="none" /><path d="M 88.72937992617638 82.28071324371311 l -33.186993730244055 -52.17546635708663 a82.83571655953165,82.83571655953165 0 0,0 1.2063873114911408,-0.7528749063902566 l 32.28644228996322 52.73747706031842" fill="#4bdeff" stroke="none" /><line stroke="#e1ed5e" stroke-width="0.3" x1="56.869717070023135" x2="54.33264160355391" y1="26.7553504044142" y2="22.446841604673864" /><path d="M 56.362301976729285 25.89364864446614 a86.0,86.0 0 0,1 42.16139366436587,-11.88097634709845" fill="none" id="id12" stroke="none" /><text fill="#e1ed5e" style="font-size:6.75px; font-family:Arial;" text-anchor="middle"><textPath startOffset="22.145653131862474" xlink:href="#id12">December</textPath></text><path d="M 89.65649057296885 81.72400993836675 l -15.881706969465258 -28.06145445927522 a53.243973741366595,53.243973741366595 0 0,0 0.7993081984585563,-0.4433627837574716 l 15.397654582850597 28.329950158465838" fill="#99ff23" stroke="none" /><path d="M 90.28995756902619 81.37971332152246 l -20.314602088277272 -38.95592808495948 a64.93458081017246,64.93458081017246 0 0,0 0.9927964889326655,-0.5069289612040745 l 19.642878377631025 39.29891499783639" fill="#33ff50" stroke="none" /><path d="M 90.93487009805054 81.0573650232925 l -17.958385721987135 -37.526119226307216 a62.6018418093081,62.6018418093081 0 0,0 0.9733432325318419,-0.455573779805867 l 17.31155377558377 37.82886923768363" fill="#2fff31" stroke="none" /><path d="M 91.5904679813234 80.7573450057729 l -12.5563886370881 -28.731474472100658 a52.35539062021979,52.35539062021979 0 0,0 0.8266291026388518,-0.352838809511684 l 12.061324459278817 28.94278793127175" fill="#a4ff21" stroke="none" /><path d="M 92.25597844496254 80.48000691201159 l -14.836132565515145 -37.39674574419933 a61.23216899146539,61.23216899146539 0 0,0 0.9803787448863941,-0.3792315594562092 l 14.191981558135222 37.64591719179358" fill="#3dff2e" stroke="none" /><path d="M 94.30408787586887 79.78721728523814 l -10.914715013230339 -38.732473069820664 a61.24096760671168,61.24096760671168 0 0,0 1.0143213123033925,-0.27645778415481015 l 10.24821229999227 38.91413134811961" fill="#3dff2e" stroke="none" /><path d="M 95.35216902796891 79.52079915486377 l -9.79407049508749 -43.15448172863929 a65.25192775608997,65.25192775608997 0 0,0 1.0944848258928097,-0.23853787370472646 l 9.051823252575563 43.31625106047773" fill="#33ff54" stroke="none" /><path d="M 95.70440661134978 79.44403061299748 l -3.6602593178633778 -17.515665864764905 a38.89402271598246,38.89402271598246 0 0,0 0.6547225581875155,-0.1309628482121576 l 3.3590402741448857 17.57591810963993" fill="#ffa50f" stroke="none" /><path d="M 96.41257539226777 79.30868818359171 l -10.762273823196677 -62.07393544922487 a84.0,84.0 0 0,0 1.4228899877877086,-0.23413600601732654 l 9.695106332355897 62.24953745373786" fill="#4dd2ff" stroke="none" /><path d="M 97.12497278360702 79.19773525538626 l -8.430617751178552 -60.99975033999276 a82.57958149588168,82.57958149588168 0 0,0 1.4059062782740144,-0.18202271494684694 l 7.382233651013744 61.13548465114" fill="#4be0ff" stroke="none" /><path d="M 98.5590905019552 79.04949213459386 l -2.2263367465278665 -32.37044768076354 a53.446917547927264,53.446917547927264 0 0,0 0.9158654828919565,-0.05509619315615604 l 1.6703269115034263 32.403895851744394" fill="#97ff23" stroke="none" /></svg>