<?xml version="1.0" encoding="utf-8" ?>
<svg baseProfile="full" height="200mm" version="1.1" viewBox="0,0,200,200" width="200mm" xmlns="http://www.w3.org/2000/svg" xmlns:ev="http://www.w3.org/2001/xml-events" xmlns:xlink="http://www.w3.org/1999/xlink"><defs /><rect fill="#1a1a1a" height="200" width="200" x="0" y="0" /><text alignment-baseline="middle" fill="#e1ed5e" style="dominant-baseline: central; font-size:9.0px; font-family:Arial;" text-anchor="middle" x="100.0" y="100.0">2022</text><line stroke="#e1ed5e" stroke-width="0.3" x1="100.0" x2="100.0" y1="15.0" y2="10.0" /><path d="M 100.0 14.0 a86.0,86.0 0 0,1 42.46469731375804,11.215312516191453" fill="none" id="id25" stroke="none" /><text fill="#e1ed5e" style="font-size:6.75px; font-family:Arial;" text-anchor="middle"><textPath startOffset="22.20632615414155" xlink:href="#id25">January</textPath></text><path d="M 100.36148047927253 79.00311137660856 l 0.26922585666121124 -15.638203584959694 a36.64052089690561,36.64052089690561 0 0,0 0.6305194440346449,0.016284457025858817 l -0.538371935890724 15.631252335791475" fill="#ff0000" stroke="none" /><path d="M 101.08401301168833 79.027996857942 l 1.7190353986778417 -33.25754893498089 a54.3019465476803,54.3019465476803 0 0,0 0.9330572922040891,0.05628456393468971 l -2.2912547397215426 33.223031101665896" fill="#cfff1d" stroke="none" /><path d="M 101.44485096284872 79.0497635885617 l 2.2500043491282824 -32.62490336585495 a53.70239806501153,53.70239806501153 0 0,0 0.9216605293999515,0.07153859551044799 l -2.811255067890575 32.581339508156034" fill="#d8ff1c" stroke="none" /><path d="M 101.80526077348638 79.07773832637324 l 3.3904468345986793 -39.29394406936548 a60.43994384205767,60.43994384205767 0 0,0 1.0357531956587278,0.09835724620645374 l -4.066325157347651 39.22976127864385" fill="#76ff27" stroke="none" /><path d="M 102.52436894288641 79.15227682838746 l 5.982992338124429 -49.41106899393103 a70.77197943061003,70.77197943061003 0 0,0 1.2081291552485414,0.15684983789018175 l -6.832636221880817 49.30076083287671" fill="#37ff7c" stroke="none" /><path d="M 103.2404852339499 79.25152402106235 l 6.999532297688059 -44.81724718904369 a66.3605456094856,66.3605456094856 0 0,0 1.127088975409172,0.18597933821351 l -7.7699504792361065 44.69012158789056" fill="#30ff39" stroke="none" /><path d="M 103.59715602781102 79.31037775812273 l 8.473995068502925 -48.739547434517554 a70.47071938573967,70.47071938573967 0 0,0 1.1933205539503529,0.2180717037214034 l -9.311710743556178 48.586460249445416" fill="#37ff78" stroke="none" /><path d="M 104.66035177308747 79.52364482259891 l 12.425875377874146 -54.59601549754047 a76.99220737847489,76.99220737847489 0 0,0 1.2897159449626994,0.30523409512171473 l -13.363815009799369 54.37403549027788" fill="#42ffd4" stroke="none" /><path d="M 105.01212808612495 79.60689891045804 l 12.86341696513086 -52.33804045292368 a74.89562110664178,74.89562110664178 0 0,0 1.2492985880986116,0.318474026899753 l -13.762424441914495 52.108863429855056" fill="#3effb7" stroke="none" /><path d="M 106.0581310904928 79.89281104454417 l 15.27190655179721 -50.688092773190846 a73.93877481308411,73.93877481308411 0 0,0 1.2154641233011887,0.3776506196858613 l -16.142156047809117 50.417702018622464" fill="#3dffaa" stroke="none" /><path d="M 106.40334571778207 80.00007090966166 l 16.307384960050847 -50.933770754272885 a74.48064890672248,74.48064890672248 0 0,0 1.2176421990575874,0.4014374887860623 l -17.18170998135085 50.645519541227586" fill="#3effb1" stroke="none" /><path d="M 107.08798089147638 80.2323363322302 l 17.528863069533326 -48.88623078169035 a72.93384831255179,72.93384831255179 0 0,0 1.1781166855733103,0.4339103178323533 l -18.367762080879213 48.57725719605167" fill="#3bff9c" stroke="none" /><path d="M 107.76421540070413 80.48803036053334 l 19.91787442849674 -50.05489171465958 a74.87219975382165,74.87219975382165 0 0,0 1.1933777608097367,0.4868087525653733 l -20.776536058894866 49.704622075910635" fill="#3effb7" stroke="none" /><path d="M 108.09893153111575 80.62456947434976 l 20.269781278703324 -48.49229030110555 a73.5582177374116,73.5582177374116 0 0,0 1.1640281191494477,0.4983760924711778 l -21.101493155643087 48.13619468067158" fill="#3cffa4" stroke="none" /><path d="M 108.43124777332544 80.76684994638697 l 21.015186074842983 -47.939313141859564 a73.3432497106699,73.3432497106699 0 0,0 1.1519007259207181,0.5168242786204021 l -21.837268919230482 47.570468532722636" fill="#3cffa1" stroke="none" /><path d="M 109.08828744355905 81.06846463323043 l 22.548662927773385 -46.97043445660839 a73.1024367268258,73.1024367268258 0 0,0 1.1297067223527073,0.5543421823960454 l -23.353840917136523 46.575337114077506" fill="#3bff9e" stroke="none" /><path d="M 109.41281617654863 81.2277094730956 l 23.6302755609394 -47.126639864268014 a73.71916262595931,73.71916262595931 0 0,0 1.1294460685067325,0.5785461442124498 l -24.43798211703489 46.71290119474307" fill="#3cffa7" stroke="none" /><path d="M 110.05341064243156 81.56283822128135 l 30.16023192729467 -55.311485336155954 a84.0,84.0 0 0,0 1.2635036437118596,0.7031384097592803 l -31.107859660078564 54.7841315288365" fill="#4dd2ff" stroke="none" /><line stroke="#e1ed5e" stroke-width="0.3" x1="143.23703022742887" x2="145.7803849466894" y1="26.81831364943548" y2="22.513508569990506" /><path d="M 143.74570117128098 25.957352633546492 a86.0,86.0 0 0,1 28.547481713284135,27.462654790039103" fill="none" id="id26" stroke="none" /><text fill="#e1ed5e" style="font-size:6.75px; font-family:Arial;" text-anchor="middle"><textPath startOffset="19.985693538727396" xlink:href="#id26">February</textPath></text><path d="M 111.2981086023043 82.29822771554956 l 23.067195221785457 -36.14146857941593 a63.87541540879658,63.87541540879658 0 0,0 0.9217312909805832,0.5995196712776604 l -23.68589353855032 35.739049983978745" fill="#48ff2c" stroke="none" /><path d="M 111.60114157652 82.49532879139004 l 30.59121268359536 -46.15831264250687 a76.3751940805301,76.3751940805301 0 0,0 1.0896023623960043,0.735704378969922 l -31.381219740397906 45.62489635123828" fill="#41ffcb" stroke="none" /><line stroke="#e1ed5e" stroke-width="0.3" x1="172.23445277983987" x2="176.4835382374775" y1="55.19839476539836" y2="52.563006222186495" /><path d="M 173.08426987136738 54.67131705675599 a86.0,86.0 0 0,1 12.851231095245387,41.99856678651699" fill="none" id="id27" stroke="none" /><text fill="#e1ed5e" style="font-size:6.75px; font-family:Arial;" text-anchor="middle"><textPath startOffset="22.20632615414155" xlink:href="#id27">March</textPath></text><line stroke="#e1ed5e" stroke-width="0.3" x1="184.98032266829074" x2="189.97916517819016" y1="98.17113171792111" y2="98.06355123074" /><path d="M 185.9800911702706 98.14961562048488 a86.0,86.0 0 0,1 -9.607161424134198,41.387399972396054" fill="none" id="id28" stroke="none" /><text fill="#e1ed5e" style="font-size:6.75px; font-family:Arial;" text-anchor="middle"><textPath startOffset="21.466115282336823" xlink:href="#id28">April</textPath></text><line stroke="#e1ed5e" stroke-width="0.3" x1="174.80103733775053" x2="179.2010983576182" y1="140.37084112569926" y2="142.7455964860345" /><path d="M 175.68104954172406 140.8457921977663 a86.0,86.0 0 0,1 -30.038265399797805,32.042727171017184" fill="none" id="id29" stroke="none" /><text fill="#e1ed5e" style="font-size:6.75px; font-family:Arial;" text-anchor="middle"><textPath startOffset="22.206326154141568" xlink:href="#id29">May</textPath></text><line stroke="#e1ed5e" stroke-width="0.3" x1="143.8653032363475" x2="146.44561519142675" y1="172.8068346515853" y2="177.08958963109032" /><path d="M 144.38136562736335 173.6633856474863 a86.0,86.0 0 0,1 -40.68145358897372,12.25698825130547" fill="none" id="id30" stroke="none" /><text fill="#e1ed5e" style="font-size:6.75px; font-family:Arial;" text-anchor="middle"><textPath startOffset="21.466115282336833" xlink:href="#id30">June</textPath></text><line stroke="#e1ed5e" stroke-width="0.3" x1="102.19456741930631" x2="102.32365962044197" y1="184.97166512339345" y2="189.96999836594603" /><path d="M 102.22038585953345 185.97133177190398 a86.0,86.0 0 0,1 -42.740103519485714,-10.115201625700543" fill="none" id="id31" stroke="none" /><text fill="#e1ed5e" style="font-size:6.75px; font-family:Arial;" text-anchor="middle"><textPath startOffset="22.20632615414155" xlink:href="#id31">July</textPath></text><line stroke="#e1ed5e" stroke-width="0.3" x1="58.666819895761336" x2="56.23545636021788" y1="174.27360380694188" y2="178.64263932499728" /><path d="M 58.180547188652646 175.14741091055294 a86.0,86.0 0 0,1 -31.652253787137756,-30.449443065178592" fill="none" id="id32" stroke="none" /><text fill="#e1ed5e" style="font-size:6.75px; font-family:Arial;" text-anchor="middle"><textPath startOffset="22.20632615414155" xlink:href="#id32">August</textPath></text><line stroke="#e1ed5e" stroke-width="0.3" x1="26.63291911575756" x2="22.317208475507996" y1="142.92168965132927" y2="145.44649492493687" /><path d="M 25.769776987707644 143.4266507060508 a86.0,86.0 0 0,1 -11.730757126820373,-40.83630448921669" fill="none" id="id33" stroke="none" /><text fill="#e1ed5e" style="font-size:6.75px; font-family:Arial;" text-anchor="middle"><textPath startOffset="21.46611528233685" xlink:href="#id33">September</textPath></text><line stroke="#e1ed5e" stroke-width="0.3" x1="15.007084014347285" x2="10.007500721073583" y1="101.09737516637583" y2="101.16192664675087" /><path d="M 14.007167355692545 101.11028546245083 a86.0,86.0 0 0,1 10.666146001902534,-42.60595125391555" fill="none" id="id34" stroke="none" /><text fill="#e1ed5e" style="font-size:6.75px; font-family:Arial;" text-anchor="middle"><textPath startOffset="22.20632615414155" xlink:href="#id34">October</textPath></text><line stroke="#e1ed5e" stroke-width="0.3" x1="26.266209847984243" x2="21.928928074336255" y1="57.711370442889674" y2="55.22380399835377" /><path d="M 25.398753493254645 57.213857153982495 a86.0,86.0 0 0,1 29.58750427330803,-30.492523968695096" fill="none" id="id35" stroke="none" /><text fill="#e1ed5e" style="font-size:6.75px; font-family:Arial;" text-anchor="middle"><textPath startOffset="21.46611528233685" xlink:href="#id35">November</textPath></text><line stroke="#e1ed5e" stroke-width="0.3" x1="56.762969772571076" x2="54.21961505331055" y1="26.818313649435495" y2="22.513508569990535" /><path d="M 56.25429882871897 25.957352633546506 a86.0,86.0 0 0,1 42.265352541879196,-11.944610805530505" fill="none" id="id36" stroke="none" /><text fill="#e1ed5e" style="font-size:6.75px; font-family:Arial;" text-anchor="middle"><textPath startOffset="22.20632615414155" xlink:href="#id36">December</textPath></text></svg>